<svg xmlns="http://www.w3.org/2000/svg" width="432.884" height="535.698" viewBox="0 0 432.884 535.698">
  <g id="header-illustration" transform="translate(-83.604 -49.337)">
    <g id="Background_Complete" data-name="Background Complete" transform="translate(83.604 83.395)">
      <g id="Group_34" data-name="Group 34" transform="translate(0 24.53)">
        <g id="Group_1" data-name="Group 1" transform="translate(4.982 5.349)">
          <path id="Path_1" data-name="Path 1" d="M87.574,140.123l.139,2.7s14.336-6.025,22.934-1.618h0a1.86,1.86,0,0,0,1.467.965l3.56.32a1.866,1.866,0,0,0,1.817-1.078h0a20.644,20.644,0,0,1,17.251.607l3.324,1.51-6.507-34.223-40.986-7.862Z" transform="translate(-87.574 -101.445)" fill="#e0e0e0"/>
        </g>
        <g id="Group_2" data-name="Group 2" transform="translate(2.682 22.046)">
          <path id="Path_2" data-name="Path 2" d="M85.741,132.94l.132,4.863s14.2-8.483,28.428.272l-3.619-23.325S86.821,128,85.741,132.94Z" transform="translate(-85.741 -114.75)" fill="#ebebeb"/>
        </g>
        <g id="Group_3" data-name="Group 3" transform="translate(0 0.555)">
          <path id="Path_3" data-name="Path 3" d="M83.6,102.165s17.034-13.1,29.912,5.194l1.33,35.081S99.275,126.627,84.7,138.353Z" transform="translate(-83.604 -97.625)" fill="#f5f5f5"/>
        </g>
        <g id="Group_4" data-name="Group 4" transform="translate(29.957 11.498)">
          <path id="Path_4" data-name="Path 4" d="M108.761,140.217s14.687-9.362,25.3.56l-3.063-32.034-23.518-2.4Z" transform="translate(-107.476 -106.345)" fill="#ebebeb"/>
        </g>
        <g id="Group_5" data-name="Group 5" transform="translate(29.892)">
          <path id="Path_5" data-name="Path 5" d="M107.424,107.5s5.076-11.34,15.834-10.242l6.889.936,3.686,32.192s-16.875-1.943-25.079,12.2Z" transform="translate(-107.424 -97.182)" fill="#f5f5f5"/>
        </g>
        <g id="Group_7" data-name="Group 7" transform="translate(29.626 10.421)">
          <g id="Group_6" data-name="Group 6">
            <path id="Path_6" data-name="Path 6" d="M108.828,140.436a6.385,6.385,0,0,1-.151-1.37c-.055-1-.124-2.255-.207-3.745-.143-3.285-.33-7.592-.537-12.356l-.535-12.354c-.064-1.49-.119-2.743-.163-3.745a6.32,6.32,0,0,1,.008-1.379,6.5,6.5,0,0,1,.215,1.363c.107.88.218,2.157.346,3.736.248,3.159.5,7.527.7,12.356s.32,9.2.37,12.367c.025,1.582.033,2.864.024,3.75A6.355,6.355,0,0,1,108.828,140.436Z" transform="translate(-107.212 -105.487)" fill="#e0e0e0"/>
          </g>
        </g>
        <g id="Group_9" data-name="Group 9" transform="translate(31.938 5.836)">
          <g id="Group_8" data-name="Group 8">
            <path id="Path_7" data-name="Path 7" d="M126.068,102.321c-.019.1-1.1-.1-2.846-.07a17.909,17.909,0,0,0-12.229,5.169c-1.239,1.232-1.847,2.147-1.933,2.089-.034-.023.093-.265.355-.691a11.18,11.18,0,0,1,1.284-1.678,16.387,16.387,0,0,1,12.526-5.294,11.215,11.215,0,0,1,2.1.248C125.812,102.2,126.075,102.282,126.068,102.321Z" transform="translate(-109.055 -101.833)" fill="#e0e0e0"/>
          </g>
        </g>
        <g id="Group_11" data-name="Group 11" transform="translate(32.836 9.484)">
          <g id="Group_10" data-name="Group 10">
            <path id="Path_8" data-name="Path 8" d="M126.783,105.228c-.018.1-1.1-.1-2.845-.07a17.915,17.915,0,0,0-12.23,5.169c-1.237,1.232-1.847,2.147-1.933,2.088-.033-.021.094-.265.355-.69a11.227,11.227,0,0,1,1.285-1.678,16.387,16.387,0,0,1,12.526-5.294,11.214,11.214,0,0,1,2.1.248C126.528,105.11,126.79,105.189,126.783,105.228Z" transform="translate(-109.77 -104.74)" fill="#e0e0e0"/>
          </g>
        </g>
        <g id="Group_13" data-name="Group 13" transform="translate(33.053 13.466)">
          <g id="Group_12" data-name="Group 12">
            <path id="Path_9" data-name="Path 9" d="M126.956,108.4c-.018.1-1.1-.1-2.845-.07a17.915,17.915,0,0,0-12.23,5.169c-1.237,1.232-1.847,2.147-1.933,2.089-.033-.021.094-.265.355-.691a11.291,11.291,0,0,1,1.285-1.678,16.387,16.387,0,0,1,12.525-5.294,11.337,11.337,0,0,1,2.1.248C126.7,108.283,126.963,108.362,126.956,108.4Z" transform="translate(-109.943 -107.913)" fill="#e0e0e0"/>
          </g>
        </g>
        <g id="Group_15" data-name="Group 15" transform="translate(33.811 17.162)">
          <g id="Group_14" data-name="Group 14">
            <path id="Path_10" data-name="Path 10" d="M127.56,111.347c-.018.1-1.1-.1-2.845-.07a17.909,17.909,0,0,0-12.23,5.169c-1.237,1.232-1.847,2.147-1.933,2.089-.033-.021.094-.265.355-.691a11.358,11.358,0,0,1,1.285-1.678,16.387,16.387,0,0,1,12.525-5.294,11.337,11.337,0,0,1,2.1.248C127.3,111.229,127.567,111.308,127.56,111.347Z" transform="translate(-110.547 -110.859)" fill="#e0e0e0"/>
          </g>
        </g>
        <g id="Group_17" data-name="Group 17" transform="translate(34.679 21.06)">
          <g id="Group_16" data-name="Group 16">
            <path id="Path_11" data-name="Path 11" d="M128.252,114.452c-.018.1-1.1-.1-2.845-.07a17.915,17.915,0,0,0-12.23,5.169c-1.237,1.232-1.846,2.147-1.933,2.089-.033-.021.094-.265.355-.691a11.357,11.357,0,0,1,1.285-1.678,16.38,16.38,0,0,1,12.526-5.293,11.232,11.232,0,0,1,2.1.247C128,114.335,128.259,114.413,128.252,114.452Z" transform="translate(-111.239 -113.964)" fill="#e0e0e0"/>
          </g>
        </g>
        <g id="Group_19" data-name="Group 19" transform="translate(34.014 25.443)">
          <g id="Group_18" data-name="Group 18">
            <path id="Path_12" data-name="Path 12" d="M129.52,117.924c-.018.1-1.191-.119-3.092-.053a21.72,21.72,0,0,0-3.31.376,26.371,26.371,0,0,0-3.918,1.127,25,25,0,0,0-3.662,1.791,18.907,18.907,0,0,0-2.669,1.981c-1.414,1.267-2.066,2.273-2.155,2.211-.034-.021.11-.282.4-.74a5.614,5.614,0,0,1,.591-.794,8.805,8.805,0,0,1,.883-.971,16.482,16.482,0,0,1,2.667-2.135,22.508,22.508,0,0,1,3.736-1.877,23.467,23.467,0,0,1,4.028-1.111,18.574,18.574,0,0,1,3.4-.264,9.9,9.9,0,0,1,1.308.08,6.488,6.488,0,0,1,.978.144A2.4,2.4,0,0,1,129.52,117.924Z" transform="translate(-110.709 -117.457)" fill="#e0e0e0"/>
          </g>
        </g>
        <g id="Group_21" data-name="Group 21" transform="translate(34.275 28.973)">
          <g id="Group_20" data-name="Group 20">
            <path id="Path_13" data-name="Path 13" d="M129.636,120.7c-.018.1-1.2-.124-3.1-.021a20.3,20.3,0,0,0-3.31.461,23.536,23.536,0,0,0-7.516,3.176,20.543,20.543,0,0,0-2.638,2.053c-1.4,1.3-2.059,2.3-2.147,2.241-.033-.023.11-.285.4-.745a6.118,6.118,0,0,1,.587-.8,9.2,9.2,0,0,1,.875-.985,17.712,17.712,0,0,1,2.628-2.2,21.5,21.5,0,0,1,7.7-3.253,17.683,17.683,0,0,1,3.411-.35,9.258,9.258,0,0,1,1.315.059,6.049,6.049,0,0,1,.984.137A2.4,2.4,0,0,1,129.636,120.7Z" transform="translate(-110.917 -120.271)" fill="#e0e0e0"/>
          </g>
        </g>
        <g id="Group_23" data-name="Group 23" transform="translate(6.584 29.822)">
          <g id="Group_22" data-name="Group 22">
            <path id="Path_14" data-name="Path 14" d="M108.557,127.474c-.079.063-.813-.936-2.322-2.2a16.042,16.042,0,0,0-14.336-3.3c-1.907.474-3.005,1.053-3.048.961-.018-.033.238-.211.734-.472a12.725,12.725,0,0,1,2.207-.88,15.225,15.225,0,0,1,14.709,3.384,12.83,12.83,0,0,1,1.6,1.757C108.435,127.18,108.586,127.452,108.557,127.474Z" transform="translate(-88.85 -120.947)" fill="#e0e0e0"/>
          </g>
        </g>
        <g id="Group_25" data-name="Group 25" transform="translate(6.306 25.317)">
          <g id="Group_24" data-name="Group 24">
            <path id="Path_15" data-name="Path 15" d="M108.337,123.884c-.079.063-.814-.936-2.323-2.2a16.042,16.042,0,0,0-14.336-3.3c-1.907.474-3,1.053-3.048.961-.016-.033.238-.211.735-.472a12.746,12.746,0,0,1,2.206-.88,15.228,15.228,0,0,1,14.71,3.384,12.889,12.889,0,0,1,1.6,1.757C108.214,123.59,108.366,123.862,108.337,123.884Z" transform="translate(-88.629 -117.357)" fill="#e0e0e0"/>
          </g>
        </g>
        <g id="Group_27" data-name="Group 27" transform="translate(6.03 20.812)">
          <g id="Group_26" data-name="Group 26">
            <path id="Path_16" data-name="Path 16" d="M108.116,120.294c-.079.063-.813-.936-2.322-2.2a16.044,16.044,0,0,0-14.336-3.3c-1.909.474-3.005,1.053-3.048.961-.018-.033.237-.211.734-.472a12.811,12.811,0,0,1,2.207-.881,15.229,15.229,0,0,1,14.709,3.386,12.83,12.83,0,0,1,1.6,1.757C107.993,120,108.145,120.272,108.116,120.294Z" transform="translate(-88.409 -113.767)" fill="#e0e0e0"/>
          </g>
        </g>
        <g id="Group_29" data-name="Group 29" transform="translate(5.753 16.307)">
          <g id="Group_28" data-name="Group 28">
            <path id="Path_17" data-name="Path 17" d="M107.895,116.7c-.079.063-.813-.937-2.322-2.2a16.042,16.042,0,0,0-14.336-3.3c-1.907.474-3,1.052-3.048.961-.016-.033.238-.211.734-.472a12.854,12.854,0,0,1,2.207-.881,15.232,15.232,0,0,1,14.71,3.386,12.814,12.814,0,0,1,1.6,1.757C107.773,116.41,107.924,116.682,107.895,116.7Z" transform="translate(-88.188 -110.177)" fill="#e0e0e0"/>
          </g>
        </g>
        <g id="Group_31" data-name="Group 31" transform="translate(5.476 11.802)">
          <g id="Group_30" data-name="Group 30">
            <path id="Path_18" data-name="Path 18" d="M107.675,113.114c-.079.063-.813-.937-2.322-2.2a16.044,16.044,0,0,0-14.336-3.3c-1.909.474-3.005,1.052-3.049.96-.016-.031.238-.21.735-.471a12.811,12.811,0,0,1,2.207-.881,15.229,15.229,0,0,1,14.709,3.386,12.813,12.813,0,0,1,1.6,1.757C107.552,112.82,107.7,113.091,107.675,113.114Z" transform="translate(-87.967 -106.587)" fill="#e0e0e0"/>
          </g>
        </g>
        <g id="Group_33" data-name="Group 33" transform="translate(5.2 7.297)">
          <g id="Group_32" data-name="Group 32">
            <path id="Path_19" data-name="Path 19" d="M107.454,109.522c-.079.064-.813-.936-2.322-2.2a16.042,16.042,0,0,0-14.336-3.3c-1.907.474-3.005,1.052-3.048.96-.016-.031.238-.21.734-.471a12.854,12.854,0,0,1,2.207-.881,15.232,15.232,0,0,1,14.71,3.386,12.741,12.741,0,0,1,1.6,1.757C107.332,109.23,107.483,109.5,107.454,109.522Z" transform="translate(-87.747 -102.997)" fill="#e0e0e0"/>
          </g>
        </g>
      </g>
      <g id="Group_68" data-name="Group 68" transform="translate(315.434 -34.059)">
        <g id="Group_35" data-name="Group 35" transform="translate(6.633 5.185)">
          <path id="Path_20" data-name="Path 20" d="M435.609,126.695l.078,3.167s-17.289-5.764-26.943.152h0a2.179,2.179,0,0,1-1.629,1.259l-4.132.691a2.186,2.186,0,0,1-2.219-1.1h0s-10.273-3.939-20.1,2.246l-3.75,2.059L381.468,94.6,428.66,81.767Z" transform="translate(-376.91 -81.767)" fill="#e0e0e0"/>
        </g>
        <g id="Group_36" data-name="Group 36" transform="translate(34.768 26.443)">
          <path id="Path_21" data-name="Path 21" d="M432.246,117.741l.279,5.693s-17.348-8.649-33.195,2.849l2.152-27.576S430.543,112.068,432.246,117.741Z" transform="translate(-399.33 -98.707)" fill="#ebebeb"/>
        </g>
        <g id="Group_37" data-name="Group 37" transform="translate(33.198)">
          <path id="Path_22" data-name="Path 22" d="M432.57,81.812S411.5,68.026,398.079,90.544l1.57,41.11s16.785-19.864,34.861-7.459Z" transform="translate(-398.079 -77.635)" fill="#f5f5f5"/>
        </g>
        <g id="Group_38" data-name="Group 38" transform="translate(5.258 14.326)">
          <path id="Path_23" data-name="Path 23" d="M405.324,128.745s-18-9.631-29.51,2.906l.728-37.7,27.266-4.9Z" transform="translate(-375.814 -89.051)" fill="#ebebeb"/>
        </g>
        <g id="Group_39" data-name="Group 39" transform="translate(0 3.72)">
          <path id="Path_24" data-name="Path 24" d="M404.849,89.82a25.3,25.3,0,0,0-21.933-9.1l-9.409,1.341-1.882,37.929s23.947-4.853,34.793,10.936Z" transform="translate(-371.624 -80.6)" fill="#f5f5f5"/>
        </g>
        <g id="Group_41" data-name="Group 41" transform="translate(33.307 13.041)">
          <g id="Group_40" data-name="Group 40">
            <path id="Path_25" data-name="Path 25" d="M399.627,129.006a7.7,7.7,0,0,0,.054-1.615c-.025-1.175-.056-2.645-.093-4.393-.125-3.851-.29-8.9-.471-14.485s-.35-10.634-.477-14.484c-.057-1.747-.1-3.216-.142-4.39a7.435,7.435,0,0,0-.132-1.611,7.48,7.48,0,0,0-.13,1.611c-.045,1.038-.061,2.54-.07,4.4-.01,3.712.085,8.839.28,14.5s.444,10.778.668,14.483c.112,1.852.217,3.349.306,4.385A7.33,7.33,0,0,0,399.627,129.006Z" transform="translate(-398.165 -88.027)" fill="#e0e0e0"/>
          </g>
        </g>
        <g id="Group_43" data-name="Group 43" transform="translate(10.598 9.049)">
          <g id="Group_42" data-name="Group 42">
            <path id="Path_26" data-name="Path 26" d="M380.07,85.767c.03.118,1.275-.213,3.318-.335a20.986,20.986,0,0,1,14.751,4.952c1.556,1.329,2.349,2.344,2.445,2.269.036-.029-.134-.3-.477-.776a13.185,13.185,0,0,0-1.65-1.847,19.209,19.209,0,0,0-15.108-5.071,13.273,13.273,0,0,0-2.431.477C380.359,85.608,380.058,85.723,380.07,85.767Z" transform="translate(-380.07 -84.846)" fill="#e0e0e0"/>
          </g>
        </g>
        <g id="Group_45" data-name="Group 45" transform="translate(9.873 13.392)">
          <g id="Group_44" data-name="Group 44">
            <path id="Path_27" data-name="Path 27" d="M379.492,89.227c.03.118,1.276-.213,3.319-.334a20.971,20.971,0,0,1,14.75,4.951c1.556,1.33,2.349,2.344,2.445,2.269.036-.028-.133-.3-.477-.776a13.124,13.124,0,0,0-1.65-1.846,19.2,19.2,0,0,0-15.108-5.071,13.187,13.187,0,0,0-2.431.477C379.781,89.068,379.481,89.183,379.492,89.227Z" transform="translate(-379.492 -88.307)" fill="#e0e0e0"/>
          </g>
        </g>
        <g id="Group_47" data-name="Group 47" transform="translate(9.975 18.064)">
          <g id="Group_46" data-name="Group 46">
            <path id="Path_28" data-name="Path 28" d="M379.573,92.951c.03.118,1.275-.213,3.318-.335a20.985,20.985,0,0,1,14.751,4.952c1.556,1.329,2.349,2.344,2.445,2.269.036-.029-.134-.3-.477-.776a13.188,13.188,0,0,0-1.65-1.847,19.213,19.213,0,0,0-15.109-5.071,13.171,13.171,0,0,0-2.429.477C379.862,92.792,379.561,92.906,379.573,92.951Z" transform="translate(-379.573 -92.03)" fill="#e0e0e0"/>
          </g>
        </g>
        <g id="Group_49" data-name="Group 49" transform="translate(9.419 22.451)">
          <g id="Group_48" data-name="Group 48">
            <path id="Path_29" data-name="Path 29" d="M379.13,96.447c.03.118,1.275-.213,3.318-.335a20.98,20.98,0,0,1,14.75,4.952c1.557,1.329,2.35,2.344,2.445,2.269.036-.029-.133-.3-.477-.776a13.191,13.191,0,0,0-1.65-1.847,19.209,19.209,0,0,0-15.108-5.071,13.3,13.3,0,0,0-2.431.477C379.417,96.288,379.118,96.4,379.13,96.447Z" transform="translate(-379.13 -95.526)" fill="#e0e0e0"/>
          </g>
        </g>
        <g id="Group_51" data-name="Group 51" transform="translate(8.75 27.081)">
          <g id="Group_50" data-name="Group 50">
            <path id="Path_30" data-name="Path 30" d="M378.6,100.137c.03.118,1.275-.213,3.318-.335a20.986,20.986,0,0,1,14.751,4.952c1.556,1.329,2.349,2.344,2.445,2.269.036-.029-.134-.3-.477-.776a13.184,13.184,0,0,0-1.65-1.847,19.213,19.213,0,0,0-15.109-5.071,13.172,13.172,0,0,0-2.429.477C378.886,99.978,378.585,100.092,378.6,100.137Z" transform="translate(-378.597 -99.216)" fill="#e0e0e0"/>
          </g>
        </g>
        <g id="Group_53" data-name="Group 53" transform="translate(7.814 32.3)">
          <g id="Group_52" data-name="Group 52">
            <path id="Path_31" data-name="Path 31" d="M377.851,104.275c.03.119,1.383-.245,3.609-.338a25.64,25.64,0,0,1,3.9.147,30.838,30.838,0,0,1,4.68.968,29.3,29.3,0,0,1,4.436,1.766,21.98,21.98,0,0,1,3.3,2.079c1.766,1.354,2.616,2.471,2.714,2.391.038-.028-.154-.32-.537-.829a6.559,6.559,0,0,0-.76-.875,10.277,10.277,0,0,0-1.118-1.057,19.372,19.372,0,0,0-3.307-2.256,26.337,26.337,0,0,0-4.533-1.862,27.539,27.539,0,0,0-4.806-.939,21.646,21.646,0,0,0-4-.005,12.03,12.03,0,0,0-1.522.21,7.4,7.4,0,0,0-1.128.257A2.825,2.825,0,0,0,377.851,104.275Z" transform="translate(-377.851 -103.374)" fill="#e0e0e0"/>
          </g>
        </g>
        <g id="Group_55" data-name="Group 55" transform="translate(7.928 36.465)">
          <g id="Group_54" data-name="Group 54">
            <path id="Path_32" data-name="Path 32" d="M377.942,107.527c.03.122,1.388-.251,3.624-.3a23.994,23.994,0,0,1,3.91.245,27.548,27.548,0,0,1,9.063,3.042,23.855,23.855,0,0,1,3.265,2.163c1.754,1.389,2.611,2.506,2.709,2.427.036-.028-.154-.321-.537-.835a7.164,7.164,0,0,0-.758-.883,10.912,10.912,0,0,0-1.109-1.073,20.809,20.809,0,0,0-3.266-2.339,25.174,25.174,0,0,0-9.284-3.116,20.726,20.726,0,0,0-4.016-.105,10.955,10.955,0,0,0-1.532.187,7.036,7.036,0,0,0-1.137.247A2.851,2.851,0,0,0,377.942,107.527Z" transform="translate(-377.942 -106.693)" fill="#e0e0e0"/>
          </g>
        </g>
        <g id="Group_57" data-name="Group 57" transform="translate(39.745 34.256)">
          <g id="Group_56" data-name="Group 56">
            <path id="Path_33" data-name="Path 33" d="M403.3,113.713c.1.068.867-1.166,2.517-2.773a18.8,18.8,0,0,1,16.458-5.131c2.271.384,3.605.963,3.648.851a2.78,2.78,0,0,0-.9-.484,15.029,15.029,0,0,0-2.657-.833,17.851,17.851,0,0,0-16.887,5.266,15,15,0,0,0-1.713,2.195A2.776,2.776,0,0,0,403.3,113.713Z" transform="translate(-403.296 -104.933)" fill="#e0e0e0"/>
          </g>
        </g>
        <g id="Group_59" data-name="Group 59" transform="translate(39.667 28.967)">
          <g id="Group_58" data-name="Group 58">
            <path id="Path_34" data-name="Path 34" d="M403.239,109.5c.1.067.867-1.167,2.517-2.775a18.8,18.8,0,0,1,16.458-5.131c2.271.384,3.605.962,3.648.852a2.766,2.766,0,0,0-.9-.486,14.908,14.908,0,0,0-2.657-.832,17.854,17.854,0,0,0-16.887,5.264,15.02,15.02,0,0,0-1.713,2.2A2.76,2.76,0,0,0,403.239,109.5Z" transform="translate(-403.234 -100.719)" fill="#e0e0e0"/>
          </g>
        </g>
        <g id="Group_61" data-name="Group 61" transform="translate(39.589 23.678)">
          <g id="Group_60" data-name="Group 60">
            <path id="Path_35" data-name="Path 35" d="M403.177,105.285c.1.067.867-1.167,2.517-2.773a18.8,18.8,0,0,1,16.458-5.131c2.273.384,3.605.961,3.648.851a2.767,2.767,0,0,0-.9-.486,15.171,15.171,0,0,0-2.658-.832,17.851,17.851,0,0,0-16.887,5.266,15.022,15.022,0,0,0-1.713,2.195A2.762,2.762,0,0,0,403.177,105.285Z" transform="translate(-403.172 -96.504)" fill="#e0e0e0"/>
          </g>
        </g>
        <g id="Group_63" data-name="Group 63" transform="translate(39.512 18.389)">
          <g id="Group_62" data-name="Group 62">
            <path id="Path_36" data-name="Path 36" d="M403.115,101.069c.1.068.867-1.166,2.519-2.773a18.8,18.8,0,0,1,16.457-5.131c2.273.384,3.605.962,3.648.851a2.81,2.81,0,0,0-.9-.484,15.01,15.01,0,0,0-2.658-.833,17.847,17.847,0,0,0-16.886,5.266,14.956,14.956,0,0,0-1.714,2.2A2.808,2.808,0,0,0,403.115,101.069Z" transform="translate(-403.11 -92.289)" fill="#e0e0e0"/>
          </g>
        </g>
        <g id="Group_65" data-name="Group 65" transform="translate(39.435 13.101)">
          <g id="Group_64" data-name="Group 64">
            <path id="Path_37" data-name="Path 37" d="M403.054,96.856c.1.067.866-1.167,2.517-2.775a18.8,18.8,0,0,1,16.457-5.131c2.273.385,3.605.963,3.648.852a2.728,2.728,0,0,0-.9-.486,15.028,15.028,0,0,0-2.658-.832,17.85,17.85,0,0,0-16.886,5.264,15.113,15.113,0,0,0-1.714,2.2A2.737,2.737,0,0,0,403.054,96.856Z" transform="translate(-403.049 -88.075)" fill="#e0e0e0"/>
          </g>
        </g>
        <g id="Group_67" data-name="Group 67" transform="translate(39.357 7.811)">
          <g id="Group_66" data-name="Group 66">
            <path id="Path_38" data-name="Path 38" d="M402.992,92.641c.1.067.867-1.166,2.517-2.773a18.8,18.8,0,0,1,16.458-5.131c2.271.384,3.605.961,3.647.851.018-.039-.3-.225-.9-.484a15.012,15.012,0,0,0-2.658-.833,17.847,17.847,0,0,0-16.886,5.266,15.051,15.051,0,0,0-1.714,2.195A2.738,2.738,0,0,0,402.992,92.641Z" transform="translate(-402.987 -83.86)" fill="#e0e0e0"/>
          </g>
        </g>
      </g>
    </g>
    <g id="Character" transform="translate(209.773 88.431)">
      <g id="Group_260" data-name="Group 260" transform="translate(0)">
        <g id="Group_77" data-name="Group 77" transform="translate(147.607 36.287)">
          <g id="Group_69" data-name="Group 69" transform="translate(31.022)">
            <path id="Path_39" data-name="Path 39" d="M362.785,139.056l-17.477-28.031a.979.979,0,0,0-1.678.028l-17.138,29.632Z" transform="translate(-326.492 -110.565)" fill="#476ddf"/>
          </g>
          <g id="Group_70" data-name="Group 70" transform="translate(31.022 0.026)" opacity="0.3">
            <path id="Path_40" data-name="Path 40" d="M362.785,139.056l-17.477-28.031a.979.979,0,0,0-1.678.028l-17.138,29.632Z" transform="translate(-326.492 -110.565)"/>
          </g>
          <g id="Group_71" data-name="Group 71" transform="translate(35.355 1.791)">
            <path id="Path_41" data-name="Path 41" d="M344.429,111.992l16.333,26.59-4.155-.654-26.662-4.2,9.926-20.915Z" transform="translate(-329.945 -111.992)" fill="#ebebeb"/>
          </g>
          <g id="Group_72" data-name="Group 72" transform="translate(0 20.946)">
            <path id="Path_42" data-name="Path 42" d="M353.357,160.381l15.729-25.58-40.728-7.492a3.212,3.212,0,0,0-3.347,1.526L302.05,167.745a1.994,1.994,0,0,0,1.368,2.977l38.269,6.791Z" transform="translate(-301.771 -127.257)" fill="#476ddf"/>
          </g>
          <g id="Group_73" data-name="Group 73" transform="translate(30.503 3.397)">
            <path id="Path_43" data-name="Path 43" d="M336.3,113.272l22.591,24.464-32.813-6.145Z" transform="translate(-326.078 -113.272)" fill="#ebebeb"/>
          </g>
          <g id="Group_75" data-name="Group 75" transform="translate(30.5 2.614)">
            <g id="Group_74" data-name="Group 74">
              <path id="Path_44" data-name="Path 44" d="M326.078,131.75a1.3,1.3,0,0,1,.149-.358l.509-1c.5-.931,1.17-2.189,2.008-3.757,1.8-3.285,4.309-7.866,7.31-13.341l.187-.34.265.286,14.737,15.891c2.749,2.985,5.41,5.872,7.878,8.551l-.487.4L345.8,119.911c-1.539-2.219-2.778-4.009-3.681-5.309-.392-.586-.709-1.059-.961-1.436a2.43,2.43,0,0,1-.3-.518,2.551,2.551,0,0,1,.391.454l1.047,1.375c.937,1.275,2.229,3.028,3.829,5.2l13.023,18.032-.487.4-7.9-8.535-14.67-15.952.452-.054c-3.085,5.429-5.663,9.97-7.514,13.228l-2.143,3.681-.584.959C326.169,131.65,326.092,131.758,326.078,131.75Z" transform="translate(-326.076 -112.648)" fill="#263238"/>
            </g>
          </g>
          <g id="Group_76" data-name="Group 76" transform="translate(17.248 32.351)" opacity="0.3">
            <path id="Path_45" data-name="Path 45" d="M329.221,136.345c-.35.532-13.7,22.786-13.7,22.786l21.765,4.062,14.44-23.075Z" transform="translate(-315.516 -136.345)" fill="#fff"/>
          </g>
        </g>
        <g id="Group_96" data-name="Group 96" transform="translate(0 431.757)">
          <g id="Group_94" data-name="Group 94">
            <g id="Group_80" data-name="Group 80">
              <g id="Group_78" data-name="Group 78">
                <path id="Path_46" data-name="Path 46" d="M198.966,442.14l11.964-15.622.621-.811,20.381,15.159L213.059,461.6l.69,20.984c10.513,2.718,12.091,7.971,12.091,7.971l-21.85-.024L184.146,452.3Z" transform="translate(-184.146 -425.707)" fill="#455a64"/>
              </g>
              <g id="Group_79" data-name="Group 79" transform="translate(0 24.433)">
                <path id="Path_47" data-name="Path 47" d="M184.146,447.339l19.844,38.228,21.85.024a8.934,8.934,0,0,0-2.458-3.287l-17.768-1L187.3,445.177Z" transform="translate(-184.146 -445.177)" fill="#ebebeb"/>
              </g>
            </g>
            <g id="Group_82" data-name="Group 82" transform="translate(23.238 45.852)">
              <g id="Group_81" data-name="Group 81">
                <path id="Path_48" data-name="Path 48" d="M208.9,463.654c-.162.223-1.422-.493-3.111-.447-1.692,0-2.93.749-3.1.531-.206-.166,1.027-1.474,3.086-1.492C207.829,462.21,209.1,463.483,208.9,463.654Z" transform="translate(-202.664 -462.245)" fill="#263238"/>
              </g>
            </g>
            <g id="Group_84" data-name="Group 84" transform="translate(22.899 39.558)">
              <g id="Group_83" data-name="Group 83">
                <path id="Path_49" data-name="Path 49" d="M208.616,459.728c-.22.154-1.191-1.136-2.933-1.477-1.739-.359-3.135.456-3.277.228-.074-.1.177-.464.791-.8a4.09,4.09,0,0,1,5,1C208.632,459.231,208.722,459.667,208.616,459.728Z" transform="translate(-202.394 -457.23)" fill="#263238"/>
              </g>
            </g>
            <g id="Group_86" data-name="Group 86" transform="translate(23.756 32.577)">
              <g id="Group_85" data-name="Group 85">
                <path id="Path_50" data-name="Path 50" d="M208.589,454.462c-.24.12-.984-1.142-2.506-1.669-1.516-.547-2.888-.033-3-.277-.059-.109.218-.414.823-.64a3.79,3.79,0,0,1,4.442,1.571C208.679,454,208.7,454.413,208.589,454.462Z" transform="translate(-203.077 -451.667)" fill="#263238"/>
              </g>
            </g>
            <g id="Group_88" data-name="Group 88" transform="translate(30.159 26.609)">
              <g id="Group_87" data-name="Group 87">
                <path id="Path_51" data-name="Path 51" d="M213.14,450.495c-.26.092-.873-1.151-2.23-2.03-1.33-.917-2.713-1.01-2.728-1.285-.074-.252,1.619-.624,3.263.487C213.1,448.761,213.4,450.467,213.14,450.495Z" transform="translate(-208.179 -446.911)" fill="#263238"/>
              </g>
            </g>
            <g id="Group_90" data-name="Group 90" transform="translate(33.137 17.001)">
              <g id="Group_89" data-name="Group 89">
                <path id="Path_52" data-name="Path 52" d="M215.387,447.963c-.11.073-.831-.807-1.9-2.288l-1.846-2.629a6.909,6.909,0,0,1-1.013-1.766,1.763,1.763,0,0,1,.134-1.328,1.364,1.364,0,0,1,1.319-.689,4.063,4.063,0,0,1,2.039,1.06A7.309,7.309,0,0,1,216.587,445c.212,1.934-.42,3.033-.5,2.984a24.372,24.372,0,0,0-.173-2.876,7.54,7.54,0,0,0-1.207-2.764,7.02,7.02,0,0,0-1.2-1.294,3.471,3.471,0,0,0-1.506-.823.392.392,0,0,0-.414.2.841.841,0,0,0-.058.619,7.253,7.253,0,0,0,.843,1.522c.568.93,1.123,1.84,1.673,2.741A9.245,9.245,0,0,1,215.387,447.963Z" transform="translate(-210.552 -439.254)" fill="#263238"/>
              </g>
            </g>
            <g id="Group_92" data-name="Group 92" transform="translate(38.568 22.123)">
              <g id="Group_91" data-name="Group 91">
                <path id="Path_53" data-name="Path 53" d="M215.066,447.572c-.1-.008-.02-1.156,1.166-2.468a5.458,5.458,0,0,1,6.477-1.166,1.007,1.007,0,0,1,.339.782,1.212,1.212,0,0,1-.264.691,3.341,3.341,0,0,1-.784.688,9.79,9.79,0,0,1-1.545.882,9.441,9.441,0,0,1-2.874.8c-1.7.182-2.722-.148-2.7-.255.014-.153,1.035-.078,2.59-.415a10.777,10.777,0,0,0,2.6-.929,10.1,10.1,0,0,0,1.38-.85,2.694,2.694,0,0,0,.566-.492c.107-.192.079-.137.044-.193a1.728,1.728,0,0,0-.634-.236,5.04,5.04,0,0,0-.811-.125,5.328,5.328,0,0,0-3.911,1.3C215.538,446.626,215.211,447.634,215.066,447.572Z" transform="translate(-214.88 -443.336)" fill="#263238"/>
              </g>
            </g>
            <g id="Group_93" data-name="Group 93" transform="translate(12.247 23.35)">
              <path id="Path_54" data-name="Path 54" d="M199.089,446.907a2.592,2.592,0,1,1-2.593-2.593A2.592,2.592,0,0,1,199.089,446.907Z" transform="translate(-193.905 -444.314)" fill="#ebebeb"/>
            </g>
          </g>
          <g id="Group_95" data-name="Group 95" transform="translate(24.052 1.179)" opacity="0.3">
            <path id="Path_55" data-name="Path 55" d="M225.149,442.712l-4.195,4.608-17.642-17.472,2.451-3.2Z" transform="translate(-203.313 -426.646)"/>
          </g>
        </g>
        <g id="Group_114" data-name="Group 114" transform="translate(72.759 454.822)">
          <g id="Group_109" data-name="Group 109">
            <g id="Group_97" data-name="Group 97">
              <path id="Path_56" data-name="Path 56" d="M269.707,445.4l-2.234,26.566s26.254,8.956,26.319,13.907l-51.666-.246,1.782-41.536Z" transform="translate(-242.126 -444.087)" fill="#455a64"/>
            </g>
            <g id="Group_99" data-name="Group 99" transform="translate(7.877 24.801)">
              <g id="Group_98" data-name="Group 98">
                <path id="Path_57" data-name="Path 57" d="M250.006,463.919a2.112,2.112,0,0,0-1.575,2.338,2.031,2.031,0,0,0,2.3,1.581,2.228,2.228,0,0,0,1.654-2.485,2.106,2.106,0,0,0-2.579-1.379" transform="translate(-248.403 -463.851)" fill="#ebebeb"/>
              </g>
            </g>
            <g id="Group_100" data-name="Group 100" transform="translate(0 37.395)">
              <path id="Path_58" data-name="Path 58" d="M242.159,478.273l.145-4.387,48.912,1.175s2.6,1.756,2.576,3.213Z" transform="translate(-242.126 -473.886)" fill="#ebebeb"/>
            </g>
            <g id="Group_102" data-name="Group 102" transform="translate(21.354 27.376)">
              <g id="Group_101" data-name="Group 101">
                <path id="Path_59" data-name="Path 59" d="M263.987,466.178c-.021.252-1.288.306-2.569,1.058-1.3.718-1.992,1.781-2.219,1.669-.231-.06.218-1.55,1.784-2.433S264.052,465.95,263.987,466.178Z" transform="translate(-259.143 -465.903)" fill="#263238"/>
              </g>
            </g>
            <g id="Group_104" data-name="Group 104" transform="translate(27.92 30.037)">
              <g id="Group_103" data-name="Group 103">
                <path id="Path_60" data-name="Path 60" d="M267.964,468.14c.046.247-1.067.624-1.975,1.65-.939,1-1.21,2.142-1.461,2.118-.238.029-.343-1.457.811-2.711S267.97,467.9,267.964,468.14Z" transform="translate(-264.375 -468.023)" fill="#263238"/>
              </g>
            </g>
            <g id="Group_106" data-name="Group 106" transform="translate(34.016 32.525)">
              <g id="Group_105" data-name="Group 105">
                <path id="Path_61" data-name="Path 61" d="M269.493,474.268c-.232.043-.523-1.235.191-2.585s1.921-1.843,2.018-1.629c.132.215-.669.919-1.239,2.037C269.868,473.195,269.744,474.255,269.493,474.268Z" transform="translate(-269.232 -470.005)" fill="#263238"/>
              </g>
            </g>
            <g id="Group_108" data-name="Group 108" transform="translate(20.651 20.511)">
              <g id="Group_107" data-name="Group 107">
                <path id="Path_62" data-name="Path 62" d="M263.967,461.462c-.117.225-1.257-.179-2.688-.151-1.432,0-2.564.424-2.685.2-.137-.189.991-1.072,2.677-1.082S264.1,461.27,263.967,461.462Z" transform="translate(-258.582 -460.432)" fill="#263238"/>
              </g>
            </g>
          </g>
          <g id="Group_111" data-name="Group 111" transform="translate(18.673 11.696)">
            <g id="Group_110" data-name="Group 110">
              <path id="Path_63" data-name="Path 63" d="M264.72,457.884a4.858,4.858,0,0,1-2.586-.138,11.59,11.59,0,0,1-2.668-.961,12.307,12.307,0,0,1-1.448-.86,3.164,3.164,0,0,1-.752-.646,1.1,1.1,0,0,1-.051-1.348,1.386,1.386,0,0,1,1.133-.523,3.4,3.4,0,0,1,.964.181,9.329,9.329,0,0,1,1.582.629,9.132,9.132,0,0,1,2.31,1.68c1.146,1.168,1.51,2.131,1.422,2.175-.119.078-.664-.74-1.84-1.714a10.335,10.335,0,0,0-2.246-1.412,9.719,9.719,0,0,0-1.463-.53c-.54-.169-1.005-.2-1.157.041-.056.09-.064.127.043.292a2.61,2.61,0,0,0,.553.472,13.558,13.558,0,0,0,1.329.847,14.427,14.427,0,0,0,2.456,1.078A17.824,17.824,0,0,1,264.72,457.884Z" transform="translate(-257.006 -453.408)" fill="#263238"/>
            </g>
          </g>
          <g id="Group_113" data-name="Group 113" transform="translate(25.478 8.404)">
            <g id="Group_112" data-name="Group 112">
              <path id="Path_64" data-name="Path 64" d="M262.991,458.9a4.146,4.146,0,0,1-.562-2.532,8.411,8.411,0,0,1,.489-2.816,8.5,8.5,0,0,1,.734-1.54,2.146,2.146,0,0,1,1.713-1.227,1.211,1.211,0,0,1,1.047.774,3.493,3.493,0,0,1,.22.961,5.757,5.757,0,0,1-.082,1.743,5.945,5.945,0,0,1-1.234,2.62c-1.074,1.29-2.141,1.541-2.158,1.454-.078-.131.826-.576,1.659-1.826a5.955,5.955,0,0,0,.936-2.392,5.367,5.367,0,0,0,.024-1.5c-.054-.553-.24-1.005-.448-.96-.256-.016-.713.376-.945.8a8.647,8.647,0,0,0-.709,1.372,9.362,9.362,0,0,0-.625,2.559C262.907,457.909,263.13,458.867,262.991,458.9Z" transform="translate(-262.429 -450.784)" fill="#263238"/>
            </g>
          </g>
        </g>
        <g id="Group_121" data-name="Group 121" transform="translate(163.914 78.15)">
          <g id="Group_120" data-name="Group 120">
            <g id="Group_115" data-name="Group 115">
              <path id="Path_65" data-name="Path 65" d="M355.975,164.492a6.455,6.455,0,0,0-.177-4.563c-2.143-5.068-7.162-16.326-8.971-16-1.609.294-2.8,3.354-.964,6.724l-5.907-5.033a1.705,1.705,0,0,0-2.795,1.555,8.513,8.513,0,0,0,.724,2.2c1.832,3.893,6.93,7.575,6.93,7.575l-10.29.061s-1.917,2.685,1.6,4.49a7.189,7.189,0,0,0,2.559.712l5.322.538s-9.615,10.625-9.939,11.617a21.583,21.583,0,0,0-.853,4.89l-18.452,20.528,4.937,31.192,33.332-57.67Z" transform="translate(-314.766 -143.924)" fill="#b78876"/>
            </g>
            <g id="Group_117" data-name="Group 117" transform="translate(28.948 12.733)">
              <g id="Group_116" data-name="Group 116">
                <path id="Path_66" data-name="Path 66" d="M347.418,157.211c-.088.056-.425-.43-1.157-.979a7.735,7.735,0,0,0-3.254-1.362,19.271,19.271,0,0,0-3.625-.2c-.945.015-1.54,0-1.547-.092s.565-.236,1.513-.369a12.341,12.341,0,0,1,3.776.016,6.707,6.707,0,0,1,3.437,1.654C347.28,156.577,347.484,157.178,347.418,157.211Z" transform="translate(-337.834 -154.071)" fill="#aa6550"/>
              </g>
            </g>
            <g id="Group_119" data-name="Group 119" transform="translate(30.721 6.375)">
              <g id="Group_118" data-name="Group 118">
                <path id="Path_67" data-name="Path 67" d="M347.224,155.291c-.112.142-1.987-1.148-4.188-2.881s-3.9-3.253-3.785-3.394,1.987,1.148,4.189,2.881S347.336,155.149,347.224,155.291Z" transform="translate(-339.247 -149.005)" fill="#aa6550"/>
              </g>
            </g>
          </g>
        </g>
        <g id="Group_181" data-name="Group 181" transform="translate(12.247 75.544)">
          <g id="Group_134" data-name="Group 134" transform="translate(0 131.342)">
            <g id="Group_122" data-name="Group 122">
              <path id="Path_68" data-name="Path 68" d="M293.286,284.271c.277.035,1.234,61.436,1.653,89.184a48.012,48.012,0,0,1-6.5,24.854L228.4,503.806,193.9,475.1l55.779-94.261-20.536-99.36,40.661-34.964Z" transform="translate(-193.905 -246.512)" fill="#263238"/>
            </g>
            <g id="Group_123" data-name="Group 123" transform="translate(55.779 23.776)">
              <path id="Path_69" data-name="Path 69" d="M311.137,266.877c-.181,3.54-32.617,231.582-32.617,231.582l-40.165-2.869,14.729-230.131Z" transform="translate(-238.354 -265.459)" fill="#263238"/>
            </g>
            <g id="Group_125" data-name="Group 125" transform="translate(34.489 41.201)">
              <g id="Group_124" data-name="Group 124">
                <path id="Path_70" data-name="Path 70" d="M281.828,279.344s.038.2.079.6c.04.424.1,1.008.166,1.759l.571,6.769c.466,5.911,1.134,14.412,1.96,24.907.778,10.527,1.7,23.051,2.729,36.953q.346,5.222.708,10.69c.093,1.82.257,3.671.195,5.552a40.239,40.239,0,0,1-.547,5.653,42.8,42.8,0,0,1-3.486,11.088c-.827,1.8-1.83,3.512-2.791,5.244s-1.943,3.481-2.923,5.238c-15.718,28.087-29.944,53.509-40.259,71.94L225.964,487.5c-1.448,2.542-2.579,4.525-3.363,5.9-.379.653-.675,1.158-.89,1.527-.2.341-.323.509-.323.509s.08-.189.265-.542l.832-1.559,3.256-5.961c2.869-5.189,6.992-12.652,12.085-21.865l40.091-72.032q1.47-2.635,2.924-5.238c.966-1.741,1.959-3.437,2.771-5.2a42.256,42.256,0,0,0,3.445-10.919,39.537,39.537,0,0,0,.546-5.563c.064-1.843-.1-3.677-.184-5.5q-.35-5.461-.685-10.684c-.975-13.905-1.852-26.431-2.59-36.96-.739-10.5-1.338-19.008-1.753-24.922-.193-2.92-.344-5.2-.449-6.779-.043-.753-.077-1.338-.1-1.763C281.822,279.55,281.828,279.344,281.828,279.344Z" transform="translate(-221.389 -279.344)" fill="#455a64"/>
              </g>
            </g>
            <g id="Group_127" data-name="Group 127" transform="translate(55.795 133.572)">
              <g id="Group_126" data-name="Group 126">
                <path id="Path_71" data-name="Path 71" d="M250.048,368.417c-.011.044-.3-.005-.813-.132a10.749,10.749,0,0,1-2.1-.784,15.856,15.856,0,0,1-8.6-11.492,10.8,10.8,0,0,1-.158-2.237c.024-.53.058-.819.1-.818.119,0,.109,1.165.509,2.967a17.175,17.175,0,0,0,8.355,11.171C248.961,367.983,250.083,368.3,250.048,368.417Z" transform="translate(-238.367 -352.953)" fill="#455a64"/>
              </g>
            </g>
            <g id="Group_129" data-name="Group 129" transform="translate(55.722 132.629)">
              <g id="Group_128" data-name="Group 128">
                <path id="Path_72" data-name="Path 72" d="M254.606,361.753a7.917,7.917,0,0,1-2.919-.015,18.074,18.074,0,0,1-11.934-6.995,7.953,7.953,0,0,1-1.439-2.54c.1-.055.66.9,1.8,2.251a20.321,20.321,0,0,0,11.648,6.828C253.5,361.618,254.608,361.64,254.606,361.753Z" transform="translate(-238.309 -352.201)" fill="#455a64"/>
              </g>
            </g>
            <g id="Group_131" data-name="Group 131" transform="translate(43.71 26.593)">
              <g id="Group_130" data-name="Group 130">
                <path id="Path_73" data-name="Path 73" d="M228.74,285.6a4.706,4.706,0,0,0,.971.669,3.6,3.6,0,0,0,3.054-.215,27.5,27.5,0,0,0,3.957-2.818c1.439-1.153,2.98-2.475,4.529-3.935a77.017,77.017,0,0,0,7.364-8.035c1.732-2.192,2.722-3.617,2.807-3.561a4.454,4.454,0,0,1-.576,1.082c-.412.67-1.042,1.618-1.864,2.76a60.624,60.624,0,0,1-7.283,8.231c-1.564,1.474-3.131,2.8-4.605,3.933a24.479,24.479,0,0,1-4.136,2.766,3.765,3.765,0,0,1-3.359.023C228.873,286.081,228.712,285.6,228.74,285.6Z" transform="translate(-228.737 -267.704)" fill="#455a64"/>
              </g>
            </g>
            <g id="Group_133" data-name="Group 133" transform="translate(46.173 42.635)">
              <g id="Group_132" data-name="Group 132">
                <path id="Path_74" data-name="Path 74" d="M250.6,280.488a16.737,16.737,0,0,1-1.587,3.541,24.536,24.536,0,0,1-5.779,7.391,14.142,14.142,0,0,1-8.733,3.337,9.45,9.45,0,0,1-2.84-.405,2.753,2.753,0,0,1-.961-.42,18.918,18.918,0,0,0,3.79.364,14.567,14.567,0,0,0,8.329-3.379,27.306,27.306,0,0,0,5.793-7.115A35.779,35.779,0,0,1,250.6,280.488Z" transform="translate(-230.7 -280.487)" fill="#455a64"/>
              </g>
            </g>
          </g>
          <g id="Group_135" data-name="Group 135" transform="translate(31.519)">
            <path id="Path_75" data-name="Path 75" d="M316.064,298.385s-31,14.474-42.118,9.491-18.4-16.479-26.444-13.8-20.313,4.982-24.529,16.479a9.983,9.983,0,0,1-2.672-7.213c0-4.47,3.761-10.53,3.761-10.53l-5.04-51.782.21-87.056s8.632-12.863,32.011-12.1l32.286,4.642s16.479,4.982,21.078,13.414,2.679,68.37,2.679,68.37,10.222,58.172,10.222,62.715a17.443,17.443,0,0,1-1.444,7.364" transform="translate(-219.022 -141.848)" fill="#668bfc"/>
          </g>
          <g id="Group_136" data-name="Group 136" transform="translate(103.266 18.088)">
            <path id="Path_76" data-name="Path 76" d="M319.832,195.75l-13.318,11.87-16.48-51.358L276.2,187.193l5.573,50.158a19.242,19.242,0,0,0,14.591,16.575h0a19.245,19.245,0,0,0,17.3-4.3l14.064-12.018a7.6,7.6,0,0,0,2.569-6.967l-5.239-33.029A3.155,3.155,0,0,0,319.832,195.75Z" transform="translate(-276.196 -156.262)" fill="#668bfc"/>
          </g>
          <g id="Group_137" data-name="Group 137" transform="translate(12.67 37.165)">
            <path id="Path_77" data-name="Path 77" d="M237.431,177.968c0,1.149-6.187,57.211-6.187,57.211l26.217,56.716c-2.579,5.341-7.431,10.2-12.839,14.947,0,0-6.707-6.131-7.09-19.162,0,0-29.794-35-32.861-44.2s5.373-72.017,5.373-72.017Z" transform="translate(-204.002 -171.464)" fill="#b78876"/>
          </g>
          <g id="Group_139" data-name="Group 139" transform="translate(90.384 53.44)">
            <g id="Group_138" data-name="Group 138">
              <path id="Path_78" data-name="Path 78" d="M288.246,184.434a4.7,4.7,0,0,1-.543,1.138c-.387.712-.964,1.729-1.689,2.98-.75,1.237-1.53,2.763-2.684,4.346a8.067,8.067,0,0,1-2.256,2.12,6.707,6.707,0,0,1-3.207.942,9.737,9.737,0,0,1-6.018-1.909,16.045,16.045,0,0,1-3.546-3.723,31.5,31.5,0,0,1-1.82-2.919,4.658,4.658,0,0,1-.546-1.138c.1-.064,1.015,1.487,2.737,3.782a16.771,16.771,0,0,0,3.525,3.509,9.359,9.359,0,0,0,5.638,1.746,6.175,6.175,0,0,0,2.908-.838,7.66,7.66,0,0,0,2.109-1.939c1.128-1.487,1.97-3.017,2.766-4.218.777-1.22,1.414-2.2,1.867-2.872A4.732,4.732,0,0,1,288.246,184.434Z" transform="translate(-265.93 -184.433)" fill="#263238"/>
            </g>
          </g>
          <g id="Group_141" data-name="Group 141" transform="translate(129.401 69.217)">
            <g id="Group_140" data-name="Group 140">
              <path id="Path_79" data-name="Path 79" d="M299.632,227.737a4.67,4.67,0,0,1-.507-1.139,27.888,27.888,0,0,1-1-3.248,38.58,38.58,0,0,1,1.123-22.131,27.4,27.4,0,0,1,1.319-3.13,4.538,4.538,0,0,1,.62-1.083c.1.049-.641,1.654-1.5,4.361a43.059,43.059,0,0,0-1.111,21.88C299.163,226.027,299.743,227.7,299.632,227.737Z" transform="translate(-297.022 -197.005)" fill="#263238"/>
            </g>
          </g>
          <g id="Group_143" data-name="Group 143" transform="translate(133.455 69.218)">
            <g id="Group_142" data-name="Group 142">
              <path id="Path_80" data-name="Path 80" d="M305.825,217.453a11.494,11.494,0,0,1-1.628-2.693,38.04,38.04,0,0,1-3.9-14.608,11.435,11.435,0,0,1,.069-3.146,21.79,21.79,0,0,1,.392,3.106,50.2,50.2,0,0,0,3.856,14.454A21.448,21.448,0,0,1,305.825,217.453Z" transform="translate(-300.253 -197.006)" fill="#263238"/>
            </g>
          </g>
          <g id="Group_145" data-name="Group 145" transform="translate(89.054 58.762)">
            <g id="Group_144" data-name="Group 144">
              <path id="Path_81" data-name="Path 81" d="M287.646,193.867a2.2,2.2,0,0,1,.291.553,16.884,16.884,0,0,1,.63,1.675,18.191,18.191,0,0,1,.821,6.527,14.6,14.6,0,0,1-3.681,8.979,12.718,12.718,0,0,1-4.769,3.346,11.093,11.093,0,0,1-6.234.522,10.3,10.3,0,0,1-5.505-2.98,11.573,11.573,0,0,1-2.648-5.193,32.306,32.306,0,0,1-.755-5.176c-.128-1.614-.246-3.122-.356-4.51-.192-2.682-.349-4.889-.467-6.532-.038-.71-.069-1.3-.094-1.779a2.273,2.273,0,0,1,.011-.624,2.239,2.239,0,0,1,.119.612c.059.479.13,1.063.217,1.768.169,1.639.4,3.84.674,6.514.134,1.385.28,2.891.435,4.5a32.912,32.912,0,0,0,.8,5.075,11.089,11.089,0,0,0,2.531,4.905,9.727,9.727,0,0,0,5.168,2.777,10.512,10.512,0,0,0,5.875-.478,12.215,12.215,0,0,0,4.554-3.154,14.325,14.325,0,0,0,3.666-8.607,19.265,19.265,0,0,0-.6-6.423C287.924,194.68,287.594,193.888,287.646,193.867Z" transform="translate(-264.87 -188.674)" fill="#263238"/>
            </g>
          </g>
          <g id="Group_147" data-name="Group 147" transform="translate(39.756 50.178)" opacity="0.2">
            <g id="Group_146" data-name="Group 146">
              <path id="Path_82" data-name="Path 82" d="M234.147,250.715a47.358,47.358,0,0,1,2.994-11.921c1.8-4.757,4.156-9.483,4.234-14.571a33.7,33.7,0,0,0-1.674-9.432q-4.58-16.478-9.158-32.957-.518,12.783-1.033,25.563c-.084,2.082-.134,4.3.952,6.079,1.354,2.21,4.13,3.172,5.675,5.253a6.14,6.14,0,0,1,.829,5.652c-.675,1.866-2.347,2.345-4.275,2.811a22.787,22.787,0,0,1-2.657.537c-1.321.21-3.209-.08-3.82,1.109-1.517,2.957.105,4.755.742,6.167,2.915,6.463,7.191,15.71,7.191,15.71" transform="translate(-225.586 -181.834)"/>
            </g>
          </g>
          <g id="Group_148" data-name="Group 148" transform="translate(6.327 7.685)">
            <path id="Path_83" data-name="Path 83" d="M229.746,147.972s-27.018,13.667-30.789,86.544a7.754,7.754,0,0,0,9.178,8.03c11.085-2.1,27.867-5.363,27.765-5.814-.153-.671,6.295-64.145,6.295-64.145Z" transform="translate(-198.947 -147.972)" fill="#668bfc"/>
          </g>
          <g id="Group_150" data-name="Group 150" transform="translate(23.456 31.173)">
            <g id="Group_149" data-name="Group 149">
              <path id="Path_84" data-name="Path 84" d="M238.233,166.689a5.519,5.519,0,0,1,.036.975c0,.639,0,1.581-.033,2.792-.054,2.426-.193,5.933-.487,10.26s-.727,9.474-1.325,15.175c-.319,2.851-.654,5.84-1,8.939q-.282,2.323-.575,4.722c-.139,1.634-.676,3.229-.927,4.815a6.3,6.3,0,0,0-.006,2.325A4.417,4.417,0,0,0,235,218.652c1.028,1.128,2.561,1.729,3.752,2.869a7.468,7.468,0,0,1,2.05,4.238,7.67,7.67,0,0,1,.068,2.31,3.721,3.721,0,0,1-.949,2.128,3.6,3.6,0,0,1-2.091.851l-2.025.39-3.871.774L225,233.644l-10.05,2.084-1.579.319-.634.125-.072.014-.018,0h0c.009.033-.07-.291-.036-.154h.009l.035-.006.134-.026.248-.046a5.347,5.347,0,0,1,.965-.147,5.59,5.59,0,0,1-.936.275l-.246.063-.133.034-.034.009-.009,0c.029.138-.045-.188-.033-.156h0l.018,0,.072-.018.626-.156,1.566-.378,10.008-2.288,6.928-1.51,3.869-.808,2.028-.405a3.044,3.044,0,0,0,1.777-.7c.88-.937.93-2.511.69-3.906a6.866,6.866,0,0,0-1.876-3.879c-1.063-1.034-2.613-1.631-3.79-2.893a5.05,5.05,0,0,1-1.245-2.251,6.908,6.908,0,0,1,0-2.574c.269-1.679.793-3.209.927-4.795q.3-2.4.584-4.718c.36-3.093.707-6.079,1.037-8.926.631-5.692,1.114-10.827,1.464-15.145s.561-7.817.693-10.236q.1-1.739.156-2.786A5.407,5.407,0,0,1,238.233,166.689Z" transform="translate(-212.596 -166.689)" fill="#263238"/>
            </g>
          </g>
          <g id="Group_152" data-name="Group 152" transform="translate(20.68 75.856)">
            <g id="Group_151" data-name="Group 151">
              <path id="Path_85" data-name="Path 85" d="M227.679,202.3c.044.013-.014.317-.158.867a5.567,5.567,0,0,1-.329.98,9.358,9.358,0,0,1-.571,1.249,14.225,14.225,0,0,1-2.057,2.926,15.663,15.663,0,0,1-7.4,4.544,14.172,14.172,0,0,1-3.54.509,9.545,9.545,0,0,1-1.372-.055,5.518,5.518,0,0,1-1.023-.151c-.555-.119-.853-.206-.845-.251.02-.124,1.249.128,3.219-.005a15.72,15.72,0,0,0,3.393-.626,16.459,16.459,0,0,0,7.128-4.377,15.849,15.849,0,0,0,2.093-2.742C227.228,203.468,227.56,202.26,227.679,202.3Z" transform="translate(-210.385 -202.296)" fill="#263238"/>
            </g>
          </g>
          <g id="Group_154" data-name="Group 154" transform="translate(66.395 134.347)" opacity="0.2">
            <g id="Group_153" data-name="Group 153">
              <path id="Path_86" data-name="Path 86" d="M247.508,255.449c12.564,7.443,27.938,9.22,42.378,7.03a20.528,20.528,0,0,0,6.889-2A8.254,8.254,0,0,0,301.1,255a5.244,5.244,0,0,0-3.088-5.854c-2.3-.783-4.738.474-6.908,1.57a62.742,62.742,0,0,1-44.289,4.466" transform="translate(-246.814 -248.907)"/>
            </g>
          </g>
          <g id="Group_156" data-name="Group 156" transform="translate(60.883 138.794)">
            <g id="Group_155" data-name="Group 155">
              <path id="Path_87" data-name="Path 87" d="M307.144,255.683a2.7,2.7,0,0,1-.543.424c-.375.247-.9.663-1.649,1.084a35.349,35.349,0,0,1-6.573,3.083c-5.76,2.133-14.394,3.334-23.7,2.1a105.914,105.914,0,0,1-23.08-6.2c-2.865-1.074-5.16-2-6.741-2.645l-1.815-.767a2.753,2.753,0,0,1-.616-.309,2.71,2.71,0,0,1,.664.187l1.858.651,6.807,2.448a114.664,114.664,0,0,0,23.006,5.988c9.217,1.219,17.738.105,23.472-1.891a39.7,39.7,0,0,0,6.6-2.867C306.315,256.146,307.112,255.634,307.144,255.683Z" transform="translate(-242.422 -252.45)" fill="#263238"/>
            </g>
          </g>
          <g id="Group_158" data-name="Group 158" transform="translate(118.61 55.041)" opacity="0.2">
            <g id="Group_157" data-name="Group 157">
              <path id="Path_88" data-name="Path 88" d="M294.708,246.675c3.792-3.775,3.8-10.551,3.01-15.843s-2.8-10.35-3.515-15.654c-.681-5.038-.183-10.156-.414-15.234s-1.313-10.377-4.622-14.236a166.212,166.212,0,0,0,5.54,60.966" transform="translate(-288.423 -185.709)"/>
            </g>
          </g>
          <g id="Group_160" data-name="Group 160" transform="translate(88.68 60.861)" opacity="0.2">
            <g id="Group_159" data-name="Group 159">
              <path id="Path_89" data-name="Path 89" d="M265.149,190.347c-.576,3.348-.04,6.839-.294,10.258a44.636,44.636,0,0,0,.035,10.256,15.162,15.162,0,0,0,4.479,9.029c2.554,2.285,6.395,3.29,9.54,1.931a8.585,8.585,0,0,0,4.818-8.455,13.962,13.962,0,0,1-7.3,1.385,10.345,10.345,0,0,1-6.618-3.195c-2.471-2.717-3.443-6.505-3.677-10.171s-.684-7.421-.986-11.038" transform="translate(-264.572 -190.347)"/>
            </g>
          </g>
          <g id="Group_162" data-name="Group 162" transform="translate(15.065 43.438)">
            <g id="Group_161" data-name="Group 161">
              <path id="Path_90" data-name="Path 90" d="M238.176,184.483a5.551,5.551,0,0,1-1.354.292c-.877.146-2.151.333-3.732.518a46.98,46.98,0,0,1-12.45.028,23.43,23.43,0,0,1-11.407-4.907,15.437,15.437,0,0,1-2.6-2.76,4.748,4.748,0,0,1-.718-1.19,29.367,29.367,0,0,0,3.612,3.59,24.437,24.437,0,0,0,11.216,4.619,53.545,53.545,0,0,0,12.3.159l3.747-.311A5.831,5.831,0,0,1,238.176,184.483Z" transform="translate(-205.91 -176.463)" fill="#fafafa"/>
            </g>
          </g>
          <g id="Group_164" data-name="Group 164" transform="translate(11.965 53.836)">
            <g id="Group_163" data-name="Group 163">
              <path id="Path_91" data-name="Path 91" d="M237.034,192a5.907,5.907,0,0,1-1.331.472,13.729,13.729,0,0,1-1.6.413c-.632.129-1.349.312-2.158.4a34.192,34.192,0,0,1-5.707.379,35.981,35.981,0,0,1-13.639-2.944,34.279,34.279,0,0,1-5.043-2.7c-.7-.418-1.276-.88-1.8-1.259a14,14,0,0,1-1.291-1.038,5.836,5.836,0,0,1-1.018-.979c.082-.1,1.6,1.221,4.353,2.884a38.549,38.549,0,0,0,5.033,2.535,38.235,38.235,0,0,0,13.42,2.9,38.739,38.739,0,0,0,5.632-.233C235.073,192.457,237,191.881,237.034,192Z" transform="translate(-203.44 -184.749)" fill="#fafafa"/>
            </g>
          </g>
          <g id="Group_166" data-name="Group 166" transform="translate(47.55 58.379)">
            <g id="Group_165" data-name="Group 165">
              <path id="Path_92" data-name="Path 92" d="M272.445,189.508c0,.181-9.108.093-20.332-.2s-20.322-.669-20.317-.85,9.107-.093,20.334.2S272.451,189.328,272.445,189.508Z" transform="translate(-231.797 -188.369)" fill="#fafafa"/>
            </g>
          </g>
          <g id="Group_168" data-name="Group 168" transform="translate(45.569 69.642)">
            <g id="Group_167" data-name="Group 167">
              <path id="Path_93" data-name="Path 93" d="M274.156,197.354a8.88,8.88,0,0,1-1.666.525c-1.083.3-2.669.671-4.643,1.057a87.842,87.842,0,0,1-31.287.331c-1.98-.344-3.574-.676-4.663-.959a8.9,8.9,0,0,1-1.678-.488,9,9,0,0,1,1.73.24c1.1.2,2.7.467,4.682.752a101.139,101.139,0,0,0,31.135-.33c1.974-.326,3.569-.622,4.666-.851A9.177,9.177,0,0,1,274.156,197.354Z" transform="translate(-230.218 -197.344)" fill="#fafafa"/>
            </g>
          </g>
          <g id="Group_170" data-name="Group 170" transform="translate(90.414 67.791)">
            <g id="Group_169" data-name="Group 169">
              <path id="Path_94" data-name="Path 94" d="M288.609,195.873a2.5,2.5,0,0,1-.414.93,7.83,7.83,0,0,1-1.843,2.087,12.132,12.132,0,0,1-8.715,2.383,22.085,22.085,0,0,1-8.563-3.051,16.215,16.215,0,0,1-3.117-2.1,30.825,30.825,0,0,1,3.338,1.692,24.384,24.384,0,0,0,8.409,2.806,12.339,12.339,0,0,0,8.368-2.1A14.071,14.071,0,0,0,288.609,195.873Z" transform="translate(-265.954 -195.869)" fill="#fafafa"/>
            </g>
          </g>
          <g id="Group_172" data-name="Group 172" transform="translate(112.133 60.015)">
            <g id="Group_171" data-name="Group 171">
              <path id="Path_95" data-name="Path 95" d="M289.858,189.743c.036.177-1.409.631-3.23,1.016s-3.329.552-3.366.376,1.408-.631,3.23-1.016S289.82,189.566,289.858,189.743Z" transform="translate(-283.261 -189.673)" fill="#fafafa"/>
            </g>
          </g>
          <g id="Group_174" data-name="Group 174" transform="translate(118.707 60.477)">
            <g id="Group_173" data-name="Group 173">
              <path id="Path_96" data-name="Path 96" d="M300.659,190.057c.079.147-2.442,1.649-5.835,2.885s-6.29,1.713-6.322,1.55c-.045-.188,2.755-.942,6.1-2.163S300.571,189.884,300.659,190.057Z" transform="translate(-288.501 -190.041)" fill="#fafafa"/>
            </g>
          </g>
          <g id="Group_176" data-name="Group 176" transform="translate(119.115 48.383)">
            <g id="Group_175" data-name="Group 175">
              <path id="Path_97" data-name="Path 97" d="M296.561,180.482c.029.193-1.74.543-3.854,1.132s-3.8,1.224-3.88,1.044c-.068-.151,1.527-1.053,3.7-1.673S296.541,180.318,296.561,180.482Z" transform="translate(-288.825 -180.404)" fill="#fafafa"/>
            </g>
          </g>
          <g id="Group_178" data-name="Group 178" transform="translate(118.312 43.871)">
            <g id="Group_177" data-name="Group 177">
              <path id="Path_98" data-name="Path 98" d="M289.9,176.808a3.238,3.238,0,0,1-.02.742l-.181,2.111c-.094.914-.191,2.034-.279,3.337s-.223,2.782-.3,4.423c-.212,3.278-.3,7.189-.338,11.531.014,4.342.138,9.114.449,14.115.334,5,.824,9.752,1.369,14.061.59,4.3,1.183,8.169,1.815,11.393.284,1.618.6,3.069.862,4.348s.494,2.379.705,3.273l.451,2.069a3.178,3.178,0,0,1,.114.733,3.183,3.183,0,0,1-.242-.7c-.149-.536-.338-1.211-.57-2.042-.25-.886-.526-1.978-.814-3.254s-.646-2.722-.959-4.338c-.691-3.221-1.334-7.093-1.959-11.4-.578-4.318-1.088-9.082-1.424-14.1-.311-5.017-.418-9.806-.4-14.161.065-4.354.206-8.275.478-11.558.1-1.644.26-3.126.393-4.427s.256-2.419.39-3.332c.123-.853.223-1.547.3-2.1A3.117,3.117,0,0,1,289.9,176.808Z" transform="translate(-288.185 -176.808)" fill="#263238"/>
            </g>
          </g>
          <g id="Group_180" data-name="Group 180" transform="translate(92.646 58.611)" opacity="0.2">
            <g id="Group_179" data-name="Group 179">
              <path id="Path_99" data-name="Path 99" d="M267.733,188.555a13.58,13.58,0,0,0,12.821.94,5.418,5.418,0,0,1,1.5-.551,1.454,1.454,0,0,1,1.423.537,1.847,1.847,0,0,1-.4,2.023,7.938,7.938,0,0,1-8.166,2.476,12.246,12.246,0,0,1-6.963-5.426" transform="translate(-267.733 -188.554)"/>
            </g>
          </g>
        </g>
        <g id="Group_259" data-name="Group 259" transform="translate(73.269)">
          <g id="Group_182" data-name="Group 182" transform="translate(6.608)">
            <path id="Path_100" data-name="Path 100" d="M249.239,108.609a44.968,44.968,0,0,1-1.431-8.723,15.06,15.06,0,0,1,2.009-8.492,9.136,9.136,0,0,1,7.252-4.434c1.822-.039,3.652.587,5.445.261,2.076-.378,3.694-1.94,5.46-3.093a15.37,15.37,0,0,1,9.4-2.445,9.159,9.159,0,0,1,4.863,1.595,5.133,5.133,0,0,1,2.175,4.459,24.422,24.422,0,0,1,6.354-.4,8.219,8.219,0,0,1,5.57,2.77,5.013,5.013,0,0,1,.363,5.924,4.075,4.075,0,0,1,4.912,2.36,5.247,5.247,0,0,1-1.309,5.529,9.809,9.809,0,0,1-6.345,2.309,14.25,14.25,0,0,1-6.084-1.244" transform="translate(-247.798 -81.648)" fill="#263238"/>
          </g>
          <g id="Group_255" data-name="Group 255" transform="translate(0 14.016)">
            <g id="Group_254" data-name="Group 254">
              <g id="Group_195" data-name="Group 195" transform="translate(3.56)">
                <g id="Group_194" data-name="Group 194">
                  <g id="Group_193" data-name="Group 193">
                    <g id="Group_187" data-name="Group 187">
                      <g id="Group_186" data-name="Group 186">
                        <g id="Group_185" data-name="Group 185">
                          <g id="Group_184" data-name="Group 184">
                            <g id="Group_183" data-name="Group 183">
                              <path id="Path_101" data-name="Path 101" d="M256.885,172.254h0a14.846,14.846,0,0,0,18.1-13c.474-4.772.89-8.846.984-9.422,0,0,12.008.23,14.2-11.432s4.865-38.852,4.865-38.852h0a41.233,41.233,0,0,0-41.711-2.018l-1.965,1.03-5.908,57.719A14.843,14.843,0,0,0,256.885,172.254Z" transform="translate(-245.37 -92.817)" fill="#b78876"/>
                            </g>
                          </g>
                        </g>
                      </g>
                    </g>
                    <g id="Group_192" data-name="Group 192" transform="translate(16.171 49.849)">
                      <g id="Group_191" data-name="Group 191">
                        <g id="Group_190" data-name="Group 190">
                          <g id="Group_189" data-name="Group 189">
                            <g id="Group_188" data-name="Group 188">
                              <path id="Path_102" data-name="Path 102" d="M272.734,139.54a27.6,27.6,0,0,1-14.478-7s2.128,9.042,13.974,10.03Z" transform="translate(-258.256 -132.541)" fill="#aa6550"/>
                            </g>
                          </g>
                        </g>
                      </g>
                    </g>
                  </g>
                </g>
              </g>
              <g id="Group_207" data-name="Group 207" transform="translate(0 17.161)">
                <g id="Group_200" data-name="Group 200">
                  <g id="Group_199" data-name="Group 199">
                    <g id="Group_198" data-name="Group 198">
                      <g id="Group_197" data-name="Group 197">
                        <g id="Group_196" data-name="Group 196">
                          <path id="Path_103" data-name="Path 103" d="M251.4,107.429c-.183-.122-7.613-3.781-8.758,4.253s7.159,7.527,7.206,7.3S251.4,107.429,251.4,107.429Z" transform="translate(-242.533 -106.493)" fill="#b78876"/>
                        </g>
                      </g>
                    </g>
                  </g>
                </g>
                <g id="Group_206" data-name="Group 206" transform="translate(2.084 2.508)">
                  <g id="Group_205" data-name="Group 205">
                    <g id="Group_204" data-name="Group 204">
                      <g id="Group_203" data-name="Group 203">
                        <g id="Group_202" data-name="Group 202">
                          <g id="Group_201" data-name="Group 201">
                            <path id="Path_104" data-name="Path 104" d="M247.4,115.077c-.031-.03-.153.079-.405.153a1.415,1.415,0,0,1-1.049-.127c-.8-.433-1.328-1.882-1.161-3.336a4.676,4.676,0,0,1,.678-1.949,1.639,1.639,0,0,1,1.206-.925.722.722,0,0,1,.772.5c.075.24,0,.393.041.413.02.024.192-.11.174-.451a.9.9,0,0,0-.245-.55,1.063,1.063,0,0,0-.744-.314,1.984,1.984,0,0,0-1.64,1.037,4.811,4.811,0,0,0-.8,2.171c-.178,1.626.434,3.259,1.549,3.761a1.513,1.513,0,0,0,1.31-.031C247.36,115.269,247.428,115.1,247.4,115.077Z" transform="translate(-244.194 -108.492)" fill="#aa6550"/>
                          </g>
                        </g>
                      </g>
                    </g>
                  </g>
                </g>
              </g>
              <g id="Group_253" data-name="Group 253" transform="translate(23.838 17.027)">
                <g id="Group_252" data-name="Group 252">
                  <g id="Group_246" data-name="Group 246" transform="translate(0 0.602)">
                    <g id="Group_245" data-name="Group 245">
                      <g id="Group_244" data-name="Group 244">
                        <g id="Group_219" data-name="Group 219" transform="translate(17.713 2.756)">
                          <g id="Group_212" data-name="Group 212" transform="translate(2.425 2.428)">
                            <g id="Group_211" data-name="Group 211">
                              <g id="Group_210" data-name="Group 210">
                                <g id="Group_209" data-name="Group 209">
                                  <g id="Group_208" data-name="Group 208">
                                    <path id="Path_105" data-name="Path 105" d="M280.953,112.818a1.7,1.7,0,0,1-1.9,1.4,1.622,1.622,0,0,1-1.457-1.807,1.7,1.7,0,0,1,1.9-1.4A1.623,1.623,0,0,1,280.953,112.818Z" transform="translate(-277.576 -110.997)" fill="#263238"/>
                                  </g>
                                </g>
                              </g>
                            </g>
                          </g>
                          <g id="Group_218" data-name="Group 218">
                            <g id="Group_217" data-name="Group 217">
                              <g id="Group_216" data-name="Group 216">
                                <g id="Group_215" data-name="Group 215">
                                  <g id="Group_214" data-name="Group 214">
                                    <g id="Group_213" data-name="Group 213">
                                      <path id="Path_106" data-name="Path 106" d="M282.225,111.458c-.245.181-1.345-.976-3.142-1.285-1.789-.335-3.27.358-3.426.1-.079-.114.2-.469.848-.787a4.643,4.643,0,0,1,2.79-.353,4.464,4.464,0,0,1,2.453,1.3C282.226,110.952,282.344,111.379,282.225,111.458Z" transform="translate(-275.644 -109.062)" fill="#263238"/>
                                    </g>
                                  </g>
                                </g>
                              </g>
                            </g>
                          </g>
                        </g>
                        <g id="Group_231" data-name="Group 231">
                          <g id="Group_224" data-name="Group 224" transform="translate(2.72 2.087)">
                            <g id="Group_223" data-name="Group 223">
                              <g id="Group_222" data-name="Group 222">
                                <g id="Group_221" data-name="Group 221">
                                  <g id="Group_220" data-name="Group 220">
                                    <path id="Path_107" data-name="Path 107" d="M267.073,110.349a1.7,1.7,0,0,1-1.9,1.4,1.621,1.621,0,0,1-1.457-1.806,1.7,1.7,0,0,1,1.9-1.4A1.623,1.623,0,0,1,267.073,110.349Z" transform="translate(-263.696 -108.528)" fill="#263238"/>
                                  </g>
                                </g>
                              </g>
                            </g>
                          </g>
                          <g id="Group_230" data-name="Group 230">
                            <g id="Group_229" data-name="Group 229">
                              <g id="Group_228" data-name="Group 228">
                                <g id="Group_227" data-name="Group 227">
                                  <g id="Group_226" data-name="Group 226">
                                    <g id="Group_225" data-name="Group 225">
                                      <path id="Path_108" data-name="Path 108" d="M268.111,109.261c-.245.182-1.348-.975-3.143-1.285-1.79-.335-3.27.358-3.426.1-.079-.113.2-.469.848-.787a4.652,4.652,0,0,1,2.79-.353,4.473,4.473,0,0,1,2.455,1.3C268.11,108.755,268.229,109.181,268.111,109.261Z" transform="translate(-261.529 -106.865)" fill="#263238"/>
                                    </g>
                                  </g>
                                </g>
                              </g>
                            </g>
                          </g>
                        </g>
                        <g id="Group_237" data-name="Group 237" transform="translate(10.768 1.749)">
                          <g id="Group_236" data-name="Group 236">
                            <g id="Group_235" data-name="Group 235">
                              <g id="Group_234" data-name="Group 234">
                                <g id="Group_233" data-name="Group 233">
                                  <g id="Group_232" data-name="Group 232">
                                    <path id="Path_109" data-name="Path 109" d="M270.109,123.367a12.013,12.013,0,0,1,3.009-.016c.467.034.917.019,1.049-.281a2.38,2.38,0,0,0-.068-1.413q-.356-1.779-.745-3.73c-1.013-5.3-1.659-9.629-1.446-9.668s1.208,4.226,2.221,9.528q.358,1.958.684,3.741a2.694,2.694,0,0,1-.078,1.841,1.163,1.163,0,0,1-.871.538,3.12,3.12,0,0,1-.8-.028A11.893,11.893,0,0,1,270.109,123.367Z" transform="translate(-270.109 -108.259)" fill="#263238"/>
                                  </g>
                                </g>
                              </g>
                            </g>
                          </g>
                        </g>
                        <g id="Group_243" data-name="Group 243" transform="translate(4.75 17.171)">
                          <g id="Group_242" data-name="Group 242">
                            <g id="Group_241" data-name="Group 241">
                              <g id="Group_240" data-name="Group 240">
                                <g id="Group_239" data-name="Group 239">
                                  <g id="Group_238" data-name="Group 238">
                                    <path id="Path_110" data-name="Path 110" d="M265.829,120.55c.295.034-.043,1.984,1.383,3.661s3.539,1.825,3.506,2.1c.006.127-.528.3-1.409.168a4.928,4.928,0,0,1-2.947-1.643,4.291,4.291,0,0,1-1.035-3.047C265.394,120.961,265.7,120.515,265.829,120.55Z" transform="translate(-265.314 -120.548)" fill="#263238"/>
                                  </g>
                                </g>
                              </g>
                            </g>
                          </g>
                        </g>
                      </g>
                    </g>
                  </g>
                  <g id="Group_251" data-name="Group 251" transform="translate(18.126)">
                    <g id="Group_250" data-name="Group 250">
                      <g id="Group_249" data-name="Group 249">
                        <g id="Group_248" data-name="Group 248">
                          <g id="Group_247" data-name="Group 247">
                            <path id="Path_111" data-name="Path 111" d="M282.034,108.863c-.387.353-1.55-.287-3.034-.567-1.475-.333-2.8-.207-3.01-.685-.09-.23.179-.6.8-.892a4.47,4.47,0,0,1,4.871,1.009C282.11,108.238,282.209,108.689,282.034,108.863Z" transform="translate(-275.972 -106.386)" fill="#263238"/>
                          </g>
                        </g>
                      </g>
                    </g>
                  </g>
                </g>
              </g>
            </g>
          </g>
          <g id="Group_257" data-name="Group 257" transform="translate(22.261 24.066)">
            <g id="Group_256" data-name="Group 256">
              <path id="Path_112" data-name="Path 112" d="M267.233,103.9c-.241.183-.685.015-1.262-.207a11.371,11.371,0,0,0-4.425-.926c-.617-.028-1.092-.05-1.239-.315-.138-.243.124-.727.841-1.131a4.788,4.788,0,0,1,5.768,1.206C267.41,103.183,267.456,103.732,267.233,103.9Z" transform="translate(-260.272 -100.826)" fill="#263238"/>
            </g>
          </g>
          <g id="Group_258" data-name="Group 258" transform="translate(6.864 11.119)">
            <path id="Path_113" data-name="Path 113" d="M294.314,103.825a27.863,27.863,0,0,1-16.9-3.853c-5.653-3.354-12.386-5.283-13.979-4.214s-2.35,7.09-8.29,8.432c0,0-.44,11.56-5.008,10.815s-.394-18.4-.394-18.4l11.648-4.673,12.442-1.426,11.5.838,10.451,4.065Z" transform="translate(-248.003 -90.509)" fill="#263238"/>
          </g>
        </g>
      </g>
    </g>
    <g id="Books" transform="translate(111.776 55.037)">
      <g id="Group_289" data-name="Group 289" transform="translate(0 106.671)">
        <g id="Group_261" data-name="Group 261" transform="translate(9.747 20.006)">
          <path id="Path_114" data-name="Path 114" d="M142.867,227.532l2.445,3.107s12.038-19.29,26.024-21.279h0a2.72,2.72,0,0,0,2.566-.085l4.521-2.621a2.729,2.729,0,0,0,1.261-2.821h0s6.743-11.957,21.114-13.826l5.242-1-36.082-33.02-56.136,22.828Z" transform="translate(-113.821 -155.983)" fill="#5550e8"/>
        </g>
        <g id="Group_262" data-name="Group 262" transform="translate(32.525 46.204)">
          <path id="Path_115" data-name="Path 115" d="M132.294,219.623l4.259,5.695s9.8-22.11,34.178-23.657l-24-24.8S129.419,212.814,132.294,219.623Z" transform="translate(-131.972 -176.86)" fill="#ebebeb"/>
        </g>
        <g id="Group_263" data-name="Group 263" transform="translate(0 27.818)">
          <path id="Path_116" data-name="Path 116" d="M106.054,183.655s9.295-30.01,40.1-19.032l31.182,40.771s-31.933-5.749-39.448,20.55Z" transform="translate(-106.054 -162.209)" fill="#f5f5f5"/>
        </g>
        <g id="Group_264" data-name="Group 264" transform="translate(41.177 14.662)">
          <path id="Path_117" data-name="Path 117" d="M168.974,208.067s9.643-23.571,30.681-20.671l-30.681-35.672L138.867,168.7Z" transform="translate(-138.867 -151.725)" fill="#ebebeb"/>
        </g>
        <g id="Group_265" data-name="Group 265" transform="translate(39.704)">
          <path id="Path_118" data-name="Path 118" d="M138.092,170.324s-3.506-17.825,10.269-25.589l9.016-4.695,31.558,35.334s-21.79,11.916-19.662,35.721Z" transform="translate(-137.693 -140.041)" fill="#f5f5f5"/>
        </g>
        <g id="Group_267" data-name="Group 267" transform="translate(39.907 30.606)">
          <g id="Group_266" data-name="Group 266">
            <path id="Path_119" data-name="Path 119" d="M169.232,204.829a12.085,12.085,0,0,1-1.308-1.531l-3.382-4.316L153.5,184.665l-11.082-14.288-3.377-4.316a11.827,11.827,0,0,1-1.182-1.63,11.863,11.863,0,0,1,1.378,1.468c.861.969,2.064,2.4,3.543,4.188,2.947,3.573,6.924,8.582,11.239,14.179s8.152,10.709,10.895,14.438l3.216,4.441A11.673,11.673,0,0,1,169.232,204.829Z" transform="translate(-137.855 -164.43)" fill="#263238"/>
          </g>
        </g>
        <g id="Group_269" data-name="Group 269" transform="translate(44.668 10.376)">
          <g id="Group_268" data-name="Group 268">
            <path id="Path_120" data-name="Path 120" d="M157.05,148.324A30.95,30.95,0,0,0,153.434,150a24.5,24.5,0,0,0-6.967,6.508,23.8,23.8,0,0,0-4.1,8.6c-.546,2.4-.464,3.952-.6,3.952a3.479,3.479,0,0,1-.1-1.084,13.5,13.5,0,0,1,.252-2.962,21.984,21.984,0,0,1,4.024-8.9,22.571,22.571,0,0,1,7.267-6.523,12.811,12.811,0,0,1,2.763-1.111A3.48,3.48,0,0,1,157.05,148.324Z" transform="translate(-141.649 -148.31)" fill="#263238"/>
          </g>
        </g>
        <g id="Group_271" data-name="Group 271" transform="translate(61.216 25.297)">
          <g id="Group_270" data-name="Group 270">
            <path id="Path_121" data-name="Path 121" d="M169.23,160.206c.054.113-1.417.764-3.494,2.263a25.724,25.724,0,0,0-3.382,2.941,25.95,25.95,0,0,0-5.751,9.257A25.823,25.823,0,0,0,155.463,179c-.423,2.525-.355,4.132-.481,4.134a3.742,3.742,0,0,1-.123-1.123,9.129,9.129,0,0,1,0-1.326,15.374,15.374,0,0,1,.146-1.753,22.955,22.955,0,0,1,1.028-4.465,24.484,24.484,0,0,1,5.889-9.479,22.968,22.968,0,0,1,3.548-2.9,15.327,15.327,0,0,1,1.508-.907,9.175,9.175,0,0,1,1.187-.589A3.74,3.74,0,0,1,169.23,160.206Z" transform="translate(-154.836 -160.199)" fill="#263238"/>
          </g>
        </g>
        <g id="Group_273" data-name="Group 273" transform="translate(64.335 29.55)">
          <g id="Group_272" data-name="Group 272">
            <path id="Path_122" data-name="Path 122" d="M173.628,163.6c.055.115-1.546.819-3.776,2.493a31.065,31.065,0,0,0-3.657,3.236,38.072,38.072,0,0,0-3.746,4.658,36.135,36.135,0,0,0-2.862,5.245,27.123,27.123,0,0,0-1.5,4.638c-.606,2.718-.512,4.471-.645,4.471a4.386,4.386,0,0,1-.108-1.224,8.549,8.549,0,0,1,.051-1.442,12.841,12.841,0,0,1,.248-1.9,24.426,24.426,0,0,1,1.4-4.779,33.286,33.286,0,0,1,2.876-5.377,34.746,34.746,0,0,1,3.858-4.716,27.467,27.467,0,0,1,3.817-3.19A14.988,14.988,0,0,1,171.2,164.7a9.588,9.588,0,0,1,1.279-.663A4.467,4.467,0,0,1,173.628,163.6Z" transform="translate(-157.321 -163.589)" fill="#263238"/>
          </g>
        </g>
        <g id="Group_275" data-name="Group 275" transform="translate(67.99 33.581)">
          <g id="Group_274" data-name="Group 274">
            <path id="Path_123" data-name="Path 123" d="M176.036,166.807c.058.118-1.557.818-3.763,2.54a29.457,29.457,0,0,0-3.588,3.339,34.054,34.054,0,0,0-6.311,10.158,29.464,29.464,0,0,0-1.4,4.7c-.566,2.741-.479,4.5-.61,4.5a4.425,4.425,0,0,1-.112-1.229,9.184,9.184,0,0,1,.041-1.447,13.79,13.79,0,0,1,.226-1.907,26.327,26.327,0,0,1,1.3-4.828,31.685,31.685,0,0,1,6.43-10.35,26.145,26.145,0,0,1,3.755-3.3,13.682,13.682,0,0,1,1.609-1.048,9.12,9.12,0,0,1,1.28-.679A4.464,4.464,0,0,1,176.036,166.807Z" transform="translate(-160.234 -166.801)" fill="#263238"/>
          </g>
        </g>
        <g id="Group_277" data-name="Group 277" transform="translate(30.397 63.046)">
          <g id="Group_276" data-name="Group 276">
            <path id="Path_124" data-name="Path 124" d="M157.641,191.644c-.034.118-1.748-.479-4.62-.73a23.314,23.314,0,0,0-19.959,8.177c-1.871,2.194-2.673,3.822-2.78,3.761a4.221,4.221,0,0,1,.511-1.165,19.366,19.366,0,0,1,1.912-2.89,22.385,22.385,0,0,1,20.364-8.343,19.4,19.4,0,0,1,3.391.718A4.212,4.212,0,0,1,157.641,191.644Z" transform="translate(-130.277 -190.281)" fill="#263238"/>
          </g>
        </g>
        <g id="Group_279" data-name="Group 279" transform="translate(26.266 57.899)">
          <g id="Group_278" data-name="Group 278">
            <path id="Path_125" data-name="Path 125" d="M154.349,187.542c-.034.119-1.748-.479-4.621-.729a23.305,23.305,0,0,0-19.959,8.177c-1.871,2.194-2.673,3.822-2.78,3.761a4.2,4.2,0,0,1,.511-1.165,19.366,19.366,0,0,1,1.912-2.89,22.378,22.378,0,0,1,20.364-8.343,19.405,19.405,0,0,1,3.391.718A4.29,4.29,0,0,1,154.349,187.542Z" transform="translate(-126.985 -186.18)" fill="#263238"/>
          </g>
        </g>
        <g id="Group_281" data-name="Group 281" transform="translate(22.135 52.753)">
          <g id="Group_280" data-name="Group 280">
            <path id="Path_126" data-name="Path 126" d="M151.057,183.441c-.034.118-1.748-.479-4.621-.729a23.305,23.305,0,0,0-19.959,8.177c-1.871,2.194-2.673,3.822-2.78,3.761a4.2,4.2,0,0,1,.511-1.165,19.365,19.365,0,0,1,1.912-2.89,22.383,22.383,0,0,1,20.364-8.344,19.387,19.387,0,0,1,3.391.719A4.239,4.239,0,0,1,151.057,183.441Z" transform="translate(-123.693 -182.079)" fill="#263238"/>
          </g>
        </g>
        <g id="Group_283" data-name="Group 283" transform="translate(18.004 47.606)">
          <g id="Group_282" data-name="Group 282">
            <path id="Path_127" data-name="Path 127" d="M147.765,179.34c-.034.118-1.748-.479-4.621-.73a23.311,23.311,0,0,0-19.959,8.178c-1.871,2.194-2.673,3.821-2.78,3.761a4.2,4.2,0,0,1,.511-1.165,19.365,19.365,0,0,1,1.912-2.89,22.382,22.382,0,0,1,20.364-8.344,19.524,19.524,0,0,1,3.391.718A4.261,4.261,0,0,1,147.765,179.34Z" transform="translate(-120.401 -177.977)" fill="#263238"/>
          </g>
        </g>
        <g id="Group_285" data-name="Group 285" transform="translate(13.873 42.459)">
          <g id="Group_284" data-name="Group 284">
            <path id="Path_128" data-name="Path 128" d="M144.473,175.239c-.034.118-1.748-.479-4.62-.73a23.311,23.311,0,0,0-19.959,8.178c-1.871,2.194-2.673,3.821-2.78,3.76a4.224,4.224,0,0,1,.511-1.163,19.366,19.366,0,0,1,1.912-2.891,22.386,22.386,0,0,1,20.364-8.343,19.52,19.52,0,0,1,3.391.718A4.26,4.26,0,0,1,144.473,175.239Z" transform="translate(-117.109 -173.876)" fill="#263238"/>
          </g>
        </g>
        <g id="Group_287" data-name="Group 287" transform="translate(9.742 37.313)">
          <g id="Group_286" data-name="Group 286">
            <path id="Path_129" data-name="Path 129" d="M141.181,171.138c-.034.118-1.748-.479-4.621-.73a23.315,23.315,0,0,0-19.959,8.177c-1.871,2.194-2.673,3.822-2.78,3.761a4.207,4.207,0,0,1,.511-1.163,19.3,19.3,0,0,1,1.912-2.891,22.385,22.385,0,0,1,20.364-8.343,19.523,19.523,0,0,1,3.391.718A4.213,4.213,0,0,1,141.181,171.138Z" transform="translate(-113.817 -169.775)" fill="#263238"/>
          </g>
        </g>
        <g id="Group_288" data-name="Group 288" transform="translate(48.567 13.982)">
          <path id="Path_130" data-name="Path 130" d="M144.756,169.568l8.616,9.561s2.683-13.232,14.389-18.25l-9.1-9.7A22.6,22.6,0,0,0,144.756,169.568Z" transform="translate(-144.756 -151.183)" fill="#ebebeb"/>
        </g>
      </g>
      <g id="Group_323" data-name="Group 323" transform="translate(76.733)">
        <g id="Group_290" data-name="Group 290" transform="translate(1.48 4.731)">
          <path id="Path_131" data-name="Path 131" d="M169.659,96.39,168.38,99.2s17.683,1.438,24.071,10.422h0a2.119,2.119,0,0,0,.978,1.748l3.436,2.2a2.128,2.128,0,0,0,2.407-.136h0s10.7.393,17.147,9.685l2.573,3.275,11.4-38.071-37.363-29.51Z" transform="translate(-168.38 -58.807)" fill="#3670e3"/>
        </g>
        <g id="Group_291" data-name="Group 291" transform="translate(0 31.963)">
          <path id="Path_132" data-name="Path 132" d="M169.623,85.81,167.2,90.8s18.837-1.123,28.639,15.223l8.6-25.517S173.314,81.379,169.623,85.81Z" transform="translate(-167.201 -80.508)" fill="#ebebeb"/>
        </g>
        <g id="Group_292" data-name="Group 292" transform="translate(0.267)">
          <path id="Path_133" data-name="Path 133" d="M185.33,55.314s24.133-4.3,27.555,20.986l-17.1,36.217s-7.45-24.2-28.372-19.988Z" transform="translate(-167.414 -55.037)" fill="#f5f5f5"/>
        </g>
        <g id="Group_293" data-name="Group 293" transform="translate(28.639 22.511)">
          <path id="Path_134" data-name="Path 134" d="M190.023,107.945s19.793-1.756,25.317,13.868l13.742-34.044-22.55-14.793Z" transform="translate(-190.023 -72.976)" fill="#ebebeb"/>
        </g>
        <g id="Group_294" data-name="Group 294" transform="translate(28.604 16.68)">
          <path id="Path_135" data-name="Path 135" d="M207.094,72.929s11.1-8.813,21.417-2.043l6.483,4.569-13.2,34.531s-16.064-10.839-31.8-.838Z" transform="translate(-189.995 -68.329)" fill="#f5f5f5"/>
        </g>
        <g id="Group_296" data-name="Group 296" transform="translate(28.634 21.262)">
          <g id="Group_295" data-name="Group 295">
            <path id="Path_136" data-name="Path 136" d="M190.024,108.2a7.378,7.378,0,0,1,.568-1.467l1.759-3.9c1.582-3.4,3.658-7.861,5.952-12.792s4.372-9.39,5.956-12.79l1.8-3.876a7.294,7.294,0,0,1,.732-1.393,7.279,7.279,0,0,1-.5,1.492c-.355.947-.914,2.3-1.614,3.965-1.409,3.328-3.452,7.883-5.786,12.879s-4.513,9.483-6.128,12.715c-.807,1.616-1.472,2.918-1.946,3.81A7.163,7.163,0,0,1,190.024,108.2Z" transform="translate(-190.019 -71.981)" fill="#263238"/>
          </g>
        </g>
        <g id="Group_298" data-name="Group 298" transform="translate(46.098 22.935)">
          <g id="Group_297" data-name="Group 297">
            <path id="Path_137" data-name="Path 137" d="M224.937,77.637c-.072.093-1.06-.679-2.844-1.567a20.437,20.437,0,0,0-15.1-1.2c-1.9.6-3,1.2-3.056,1.1-.023-.039.235-.218.723-.512a12.766,12.766,0,0,1,2.184-1.024,18.7,18.7,0,0,1,15.465,1.226,12.792,12.792,0,0,1,1.994,1.355C224.74,77.384,224.964,77.6,224.937,77.637Z" transform="translate(-203.936 -73.313)" fill="#263238"/>
          </g>
        </g>
        <g id="Group_300" data-name="Group 300" transform="translate(45.09 27.1)">
          <g id="Group_299" data-name="Group 299">
            <path id="Path_138" data-name="Path 138" d="M224.133,80.956c-.072.094-1.06-.678-2.844-1.566a20.419,20.419,0,0,0-15.1-1.2c-1.9.6-3,1.2-3.056,1.1-.021-.039.235-.218.723-.512a12.864,12.864,0,0,1,2.184-1.024A18.7,18.7,0,0,1,221.5,78.981a12.9,12.9,0,0,1,2,1.355C223.936,80.7,224.16,80.921,224.133,80.956Z" transform="translate(-203.132 -76.632)" fill="#263238"/>
          </g>
        </g>
        <g id="Group_302" data-name="Group 302" transform="translate(43.216 31.246)">
          <g id="Group_301" data-name="Group 301">
            <path id="Path_139" data-name="Path 139" d="M222.64,84.26c-.073.094-1.06-.678-2.845-1.567a20.427,20.427,0,0,0-15.1-1.2c-1.9.6-3,1.2-3.054,1.1-.023-.039.235-.218.723-.512a12.72,12.72,0,0,1,2.184-1.024,18.7,18.7,0,0,1,15.465,1.226,12.881,12.881,0,0,1,1.994,1.355C222.443,84.007,222.667,84.225,222.64,84.26Z" transform="translate(-201.639 -79.936)" fill="#263238"/>
          </g>
        </g>
        <g id="Group_304" data-name="Group 304" transform="translate(42.039 35.387)">
          <g id="Group_303" data-name="Group 303">
            <path id="Path_140" data-name="Path 140" d="M221.7,87.56c-.072.094-1.06-.678-2.844-1.566a20.419,20.419,0,0,0-15.1-1.2c-1.9.6-3,1.2-3.056,1.1-.021-.04.235-.22.723-.513a12.963,12.963,0,0,1,2.184-1.024,18.7,18.7,0,0,1,15.465,1.226,12.9,12.9,0,0,1,2,1.355C221.5,87.307,221.73,87.525,221.7,87.56Z" transform="translate(-200.701 -83.236)" fill="#263238"/>
          </g>
        </g>
        <g id="Group_306" data-name="Group 306" transform="translate(40.87 39.789)">
          <g id="Group_305" data-name="Group 305">
            <path id="Path_141" data-name="Path 141" d="M220.771,91.068c-.073.094-1.062-.678-2.845-1.567a20.427,20.427,0,0,0-15.1-1.2c-1.9.6-3,1.2-3.054,1.1-.023-.039.235-.218.723-.512a12.843,12.843,0,0,1,2.182-1.024,18.7,18.7,0,0,1,15.467,1.226,12.884,12.884,0,0,1,1.994,1.355C220.572,90.815,220.8,91.033,220.771,91.068Z" transform="translate(-199.77 -86.744)" fill="#263238"/>
          </g>
        </g>
        <g id="Group_308" data-name="Group 308" transform="translate(37.774 44.373)">
          <g id="Group_307" data-name="Group 307">
            <path id="Path_142" data-name="Path 142" d="M220.253,95.149c-.073.1-1.144-.748-3.1-1.679a24.739,24.739,0,0,0-3.55-1.359,30.008,30.008,0,0,0-4.559-.92,28.462,28.462,0,0,0-4.648-.112,21.344,21.344,0,0,0-3.745.6c-2.1.538-3.287,1.215-3.344,1.1-.023-.039.261-.227.8-.537a6.4,6.4,0,0,1,1.015-.494,10.086,10.086,0,0,1,1.4-.518,18.837,18.837,0,0,1,3.822-.758,25.681,25.681,0,0,1,4.771.062,27.018,27.018,0,0,1,4.662.994,21.213,21.213,0,0,1,3.583,1.522,11.451,11.451,0,0,1,1.283.769,7.2,7.2,0,0,1,.914.661C220.033,94.882,220.28,95.114,220.253,95.149Z" transform="translate(-197.302 -90.397)" fill="#263238"/>
          </g>
        </g>
        <g id="Group_310" data-name="Group 310" transform="translate(35.95 48.334)">
          <g id="Group_309" data-name="Group 309">
            <path id="Path_143" data-name="Path 143" d="M218.957,97.971c-.073.1-1.147-.755-3.131-1.653a23.249,23.249,0,0,0-3.594-1.274,26.835,26.835,0,0,0-9.279-.735A23.268,23.268,0,0,0,199.2,95c-2.1.573-3.3,1.246-3.353,1.139-.021-.04.262-.23.8-.543a7.016,7.016,0,0,1,1.015-.5,10.645,10.645,0,0,1,1.4-.537,20.264,20.264,0,0,1,3.819-.848,24.526,24.526,0,0,1,9.5.754,20.283,20.283,0,0,1,3.637,1.438,10.765,10.765,0,0,1,1.3.752,7.012,7.012,0,0,1,.924.656C218.734,97.7,218.985,97.936,218.957,97.971Z" transform="translate(-195.849 -93.554)" fill="#263238"/>
          </g>
        </g>
        <g id="Group_312" data-name="Group 312" transform="translate(10.802 30.699)">
          <g id="Group_311" data-name="Group 311">
            <path id="Path_144" data-name="Path 144" d="M193.376,94.545c-.113.023-.331-1.375-1.2-3.446A18.306,18.306,0,0,0,179.4,80.221c-2.182-.523-3.6-.515-3.593-.63a2.662,2.662,0,0,1,.991-.09,14.585,14.585,0,0,1,2.7.269,17.376,17.376,0,0,1,13.112,11.161,14.5,14.5,0,0,1,.7,2.62A2.666,2.666,0,0,1,193.376,94.545Z" transform="translate(-175.809 -79.501)" fill="#263238"/>
          </g>
        </g>
        <g id="Group_314" data-name="Group 314" transform="translate(12.891 25.992)">
          <g id="Group_313" data-name="Group 313">
            <path id="Path_145" data-name="Path 145" d="M195.041,90.794c-.114.023-.331-1.375-1.2-3.445a18.309,18.309,0,0,0-12.78-10.879c-2.181-.522-3.6-.515-3.592-.63a2.731,2.731,0,0,1,.991-.09,14.583,14.583,0,0,1,2.7.269A17.376,17.376,0,0,1,194.276,87.18a14.746,14.746,0,0,1,.7,2.62A2.7,2.7,0,0,1,195.041,90.794Z" transform="translate(-177.474 -75.75)" fill="#263238"/>
          </g>
        </g>
        <g id="Group_316" data-name="Group 316" transform="translate(14.98 21.285)">
          <g id="Group_315" data-name="Group 315">
            <path id="Path_146" data-name="Path 146" d="M196.705,87.043c-.113.023-.331-1.375-1.2-3.445a18.3,18.3,0,0,0-12.78-10.879c-2.181-.522-3.6-.514-3.591-.63a2.731,2.731,0,0,1,.991-.09,14.585,14.585,0,0,1,2.7.269A17.375,17.375,0,0,1,195.94,83.43a14.583,14.583,0,0,1,.7,2.62A2.694,2.694,0,0,1,196.705,87.043Z" transform="translate(-179.138 -71.999)" fill="#263238"/>
          </g>
        </g>
        <g id="Group_318" data-name="Group 318" transform="translate(17.068 16.578)">
          <g id="Group_317" data-name="Group 317">
            <path id="Path_147" data-name="Path 147" d="M198.369,83.292c-.113.023-.331-1.375-1.2-3.445a18.3,18.3,0,0,0-12.78-10.877c-2.181-.523-3.6-.514-3.591-.63a2.675,2.675,0,0,1,.991-.092,14.718,14.718,0,0,1,2.7.27A17.377,17.377,0,0,1,197.6,79.679a14.5,14.5,0,0,1,.7,2.62A2.693,2.693,0,0,1,198.369,83.292Z" transform="translate(-180.802 -68.248)" fill="#263238"/>
          </g>
        </g>
        <g id="Group_320" data-name="Group 320" transform="translate(19.156 11.872)">
          <g id="Group_319" data-name="Group 319">
            <path id="Path_148" data-name="Path 148" d="M200.033,79.542c-.113.023-.33-1.377-1.195-3.446a18.3,18.3,0,0,0-12.78-10.877c-2.181-.523-3.6-.515-3.593-.63a2.673,2.673,0,0,1,.993-.09,14.583,14.583,0,0,1,2.7.269,17.376,17.376,0,0,1,13.114,11.161,14.719,14.719,0,0,1,.7,2.62A2.645,2.645,0,0,1,200.033,79.542Z" transform="translate(-182.466 -64.498)" fill="#263238"/>
          </g>
        </g>
        <g id="Group_322" data-name="Group 322" transform="translate(21.245 7.165)">
          <g id="Group_321" data-name="Group 321">
            <path id="Path_149" data-name="Path 149" d="M201.7,75.791c-.114.023-.331-1.375-1.2-3.446a18.3,18.3,0,0,0-12.78-10.877c-2.181-.523-3.6-.515-3.592-.63a2.662,2.662,0,0,1,.991-.09,14.6,14.6,0,0,1,2.7.269,17.377,17.377,0,0,1,13.112,11.161,14.719,14.719,0,0,1,.7,2.62A2.7,2.7,0,0,1,201.7,75.791Z" transform="translate(-184.131 -60.747)" fill="#263238"/>
          </g>
        </g>
      </g>
      <g id="Group_363" data-name="Group 363" transform="translate(308.032 110.793)">
        <g id="Group_361" data-name="Group 361">
          <g id="Group_324" data-name="Group 324" transform="translate(1.377 7.055)">
            <path id="Path_150" data-name="Path 150" d="M354.732,192.562l-2.116,3.339s22.2,4.927,28.732,17.452h0a2.719,2.719,0,0,0,.935,2.392l3.977,3.391a2.727,2.727,0,0,0,3.08.248h0s13.52,2.377,20.07,15.3L412.1,239.3l21.156-46.333L391,148.948Z" transform="translate(-352.616 -148.948)" fill="#668bfc"/>
          </g>
          <g id="Group_325" data-name="Group 325" transform="translate(0 41.813)">
            <path id="Path_151" data-name="Path 151" d="M355.471,179.034l-3.952,5.912s24.112,1.879,33.69,24.35L400.6,178.408S360.933,174.056,355.471,179.034Z" transform="translate(-351.519 -176.647)" fill="#ebebeb"/>
          </g>
          <g id="Group_326" data-name="Group 326" transform="translate(1.176)">
            <path id="Path_152" data-name="Path 152" d="M381.729,143.332s31.391-1.229,31.3,31.475L384.97,217.789s-5.214-32.026-32.514-30.352Z" transform="translate(-352.456 -143.326)" fill="#f5f5f5"/>
          </g>
          <g id="Group_327" data-name="Group 327" transform="translate(33.69 32.962)">
            <path id="Path_153" data-name="Path 153" d="M378.366,211.094s25.437,1.241,29.71,22.045l23.416-40.809-26.034-22.736Z" transform="translate(-378.366 -169.593)" fill="#ebebeb"/>
          </g>
          <g id="Group_328" data-name="Group 328" transform="translate(33.642 27.714)">
            <path id="Path_154" data-name="Path 154" d="M406.387,169.194s15.64-9.241,27.549,1.162l7.429,6.938-22.808,41.523s-18.493-16.577-40.229-6.642Z" transform="translate(-378.328 -165.411)" fill="#f5f5f5"/>
          </g>
          <g id="Group_330" data-name="Group 330" transform="translate(33.687 31.423)">
            <g id="Group_329" data-name="Group 329">
              <path id="Path_155" data-name="Path 155" d="M378.367,211.406a11.906,11.906,0,0,1,1.009-1.743c.755-1.19,1.747-2.747,2.941-4.626,2.575-3.979,6.017-9.3,9.822-15.183l9.783-15.208,2.944-4.622a11.867,11.867,0,0,1,1.143-1.658,11.884,11.884,0,0,1-.925,1.789c-.627,1.133-1.581,2.746-2.77,4.733-2.387,3.969-5.786,9.389-9.628,15.32s-7.383,11.254-9.985,15.083c-1.265,1.832-2.314,3.352-3.116,4.511A11.7,11.7,0,0,1,378.367,211.406Z" transform="translate(-378.364 -168.367)" fill="#263238"/>
            </g>
          </g>
          <g id="Group_332" data-name="Group 332" transform="translate(61.449 35.147)">
            <g id="Group_331" data-name="Group 331">
              <path id="Path_156" data-name="Path 156" d="M426.854,179.027c-.089.089-1.193-1.082-3.3-2.541a25.738,25.738,0,0,0-3.9-2.209,25.981,25.981,0,0,0-10.643-2.34,25.886,25.886,0,0,0-4.467.37c-2.522.442-4.016,1.042-4.058.924a3.684,3.684,0,0,1,1.019-.491,9.032,9.032,0,0,1,1.25-.439,15.216,15.216,0,0,1,1.7-.447,22.915,22.915,0,0,1,4.553-.52,24.5,24.5,0,0,1,10.9,2.4,22.936,22.936,0,0,1,3.915,2.379,15.726,15.726,0,0,1,1.358,1.119,9.173,9.173,0,0,1,.951.925C426.63,178.688,426.886,179,426.854,179.027Z" transform="translate(-400.487 -171.334)" fill="#263238"/>
            </g>
          </g>
          <g id="Group_334" data-name="Group 334" transform="translate(59.437 40.259)">
            <g id="Group_333" data-name="Group 333">
              <path id="Path_157" data-name="Path 157" d="M425.252,183.1c-.089.089-1.193-1.082-3.3-2.541a25.8,25.8,0,0,0-3.9-2.209,25.993,25.993,0,0,0-10.644-2.34,25.894,25.894,0,0,0-4.467.37c-2.522.443-4.014,1.042-4.058.924a3.756,3.756,0,0,1,1.019-.491,9.226,9.226,0,0,1,1.251-.439,15.264,15.264,0,0,1,1.7-.447,22.832,22.832,0,0,1,4.554-.518,24.475,24.475,0,0,1,10.9,2.4,23,23,0,0,1,3.917,2.379,15.684,15.684,0,0,1,1.357,1.119,9.054,9.054,0,0,1,.951.925C425.027,182.76,425.285,183.068,425.252,183.1Z" transform="translate(-398.884 -175.408)" fill="#263238"/>
            </g>
          </g>
          <g id="Group_336" data-name="Group 336" transform="translate(56.332 45.193)">
            <g id="Group_335" data-name="Group 335">
              <path id="Path_158" data-name="Path 158" d="M422.776,187.031c-.089.089-1.193-1.08-3.3-2.54a25.733,25.733,0,0,0-3.9-2.21,26.006,26.006,0,0,0-10.643-2.339,25.636,25.636,0,0,0-4.467.37c-2.522.442-4.016,1.042-4.058.922a3.753,3.753,0,0,1,1.019-.489,9.245,9.245,0,0,1,1.25-.44,15.292,15.292,0,0,1,1.7-.447,23.014,23.014,0,0,1,4.553-.518,24.523,24.523,0,0,1,10.9,2.4,23,23,0,0,1,3.917,2.381,15.429,15.429,0,0,1,1.357,1.119,9.177,9.177,0,0,1,.951.924C422.552,186.692,422.808,187,422.776,187.031Z" transform="translate(-396.409 -179.34)" fill="#263238"/>
            </g>
          </g>
          <g id="Group_338" data-name="Group 338" transform="translate(80.479 57.937)">
            <g id="Group_337" data-name="Group 337">
              <path id="Path_159" data-name="Path 159" d="M415.651,189.495" transform="translate(-415.651 -189.495)" fill="none" stroke="#4e585d" stroke-miterlimit="10" stroke-width="0.05"/>
            </g>
          </g>
          <g id="Group_340" data-name="Group 340" transform="translate(54.112 52.141)">
            <g id="Group_339" data-name="Group 339">
              <path id="Path_160" data-name="Path 160" d="M394.64,184.876" transform="translate(-394.64 -184.876)" fill="none" stroke="#4e585d" stroke-miterlimit="10" stroke-width="0.05"/>
            </g>
          </g>
          <g id="Group_342" data-name="Group 342" transform="translate(78.222 63.32)">
            <g id="Group_341" data-name="Group 341">
              <path id="Path_161" data-name="Path 161" d="M413.853,193.785" transform="translate(-413.853 -193.785)" fill="none" stroke="#4e585d" stroke-miterlimit="10" stroke-width="0.05"/>
            </g>
          </g>
          <g id="Group_344" data-name="Group 344" transform="translate(51.856 57.524)">
            <g id="Group_343" data-name="Group 343">
              <path id="Path_162" data-name="Path 162" d="M392.842,189.166" transform="translate(-392.842 -189.166)" fill="none" stroke="#4e585d" stroke-miterlimit="10" stroke-width="0.05"/>
            </g>
          </g>
          <g id="Group_346" data-name="Group 346" transform="translate(75.888 69.482)">
            <g id="Group_345" data-name="Group 345">
              <path id="Path_163" data-name="Path 163" d="M411.993,198.7" transform="translate(-411.993 -198.695)" fill="none" stroke="#4e585d" stroke-miterlimit="10" stroke-width="0.05"/>
            </g>
          </g>
          <g id="Group_348" data-name="Group 348" transform="translate(47.166 62.46)">
            <g id="Group_347" data-name="Group 347">
              <path id="Path_164" data-name="Path 164" d="M389.105,193.1" transform="translate(-389.105 -193.099)" fill="none" stroke="#4e585d" stroke-miterlimit="10" stroke-width="0.05"/>
            </g>
          </g>
          <g id="Group_350" data-name="Group 350" transform="translate(15.726 37.43)">
            <g id="Group_349" data-name="Group 349">
              <path id="Path_165" data-name="Path 165" d="M383.73,195.237c-.122.009-.129-1.807-.85-4.6a23.319,23.319,0,0,0-14.358-16.1c-2.691-1.033-4.494-1.247-4.471-1.368a4.2,4.2,0,0,1,1.267.094,19.327,19.327,0,0,1,3.363.84,22.388,22.388,0,0,1,14.648,16.424,19.469,19.469,0,0,1,.452,3.436A4.186,4.186,0,0,1,383.73,195.237Z" transform="translate(-364.051 -173.153)" fill="#263238"/>
            </g>
          </g>
          <g id="Group_352" data-name="Group 352" transform="translate(19.203 31.82)">
            <g id="Group_351" data-name="Group 351">
              <path id="Path_166" data-name="Path 166" d="M386.5,190.768c-.123.008-.131-1.808-.851-4.6a23.313,23.313,0,0,0-14.357-16.1c-2.692-1.033-4.494-1.247-4.471-1.368a4.2,4.2,0,0,1,1.267.094,19.406,19.406,0,0,1,3.362.84A22.381,22.381,0,0,1,386.1,186.061a19.375,19.375,0,0,1,.453,3.436A4.258,4.258,0,0,1,386.5,190.768Z" transform="translate(-366.822 -168.683)" fill="#263238"/>
            </g>
          </g>
          <g id="Group_354" data-name="Group 354" transform="translate(22.679 26.211)">
            <g id="Group_353" data-name="Group 353">
              <path id="Path_167" data-name="Path 167" d="M389.272,186.3c-.123.008-.13-1.808-.851-4.6a23.313,23.313,0,0,0-14.357-16.1c-2.692-1.033-4.5-1.247-4.472-1.368a4.2,4.2,0,0,1,1.267.094,19.44,19.44,0,0,1,3.363.841,22.377,22.377,0,0,1,14.648,16.423,19.378,19.378,0,0,1,.453,3.436A4.256,4.256,0,0,1,389.272,186.3Z" transform="translate(-369.592 -164.213)" fill="#263238"/>
            </g>
          </g>
          <g id="Group_356" data-name="Group 356" transform="translate(26.157 20.601)">
            <g id="Group_355" data-name="Group 355">
              <path id="Path_168" data-name="Path 168" d="M392.043,181.828c-.123.009-.13-1.808-.851-4.6a23.306,23.306,0,0,0-14.359-16.1c-2.69-1.034-4.494-1.249-4.471-1.369a4.2,4.2,0,0,1,1.267.094,19.438,19.438,0,0,1,3.363.841,22.383,22.383,0,0,1,14.648,16.423,19.492,19.492,0,0,1,.452,3.436A4.291,4.291,0,0,1,392.043,181.828Z" transform="translate(-372.363 -159.743)" fill="#263238"/>
            </g>
          </g>
          <g id="Group_358" data-name="Group 358" transform="translate(29.634 14.993)">
            <g id="Group_357" data-name="Group 357">
              <path id="Path_169" data-name="Path 169" d="M394.813,177.358c-.122.009-.131-1.807-.85-4.6a23.313,23.313,0,0,0-14.359-16.1c-2.69-1.034-4.494-1.249-4.471-1.369a4.251,4.251,0,0,1,1.267.094,19.431,19.431,0,0,1,3.362.841,22.381,22.381,0,0,1,14.65,16.423,19.48,19.48,0,0,1,.452,3.437A4.253,4.253,0,0,1,394.813,177.358Z" transform="translate(-375.134 -155.274)" fill="#263238"/>
            </g>
          </g>
          <g id="Group_360" data-name="Group 360" transform="translate(33.11 9.383)">
            <g id="Group_359" data-name="Group 359">
              <path id="Path_170" data-name="Path 170" d="M397.585,172.888c-.123.009-.131-1.807-.851-4.6a23.308,23.308,0,0,0-14.357-16.1c-2.692-1.034-4.494-1.249-4.472-1.369a4.26,4.26,0,0,1,1.269.094,19.432,19.432,0,0,1,3.362.841,22.377,22.377,0,0,1,14.648,16.423,19.382,19.382,0,0,1,.453,3.437A4.253,4.253,0,0,1,397.585,172.888Z" transform="translate(-377.904 -150.804)" fill="#263238"/>
            </g>
          </g>
        </g>
        <g id="Group_362" data-name="Group 362" transform="translate(47.166 51.654)">
          <path id="Path_171" data-name="Path 171" d="M397.293,185.719l-8.188,11.85s12.516-1.475,23.468,5.486l7.588-12.7s-11.594-9.1-22.868-4.639" transform="translate(-389.105 -184.488)" fill="#ebebeb"/>
        </g>
      </g>
    </g>
  </g>
</svg>
