<svg xmlns="http://www.w3.org/2000/svg" xmlns:xlink="http://www.w3.org/1999/xlink" width="244.839" height="55.426" viewBox="0 0 244.839 55.426">
  <defs>
    <linearGradient id="linear-gradient" x1="0.308" y1="-0.168" x2="0.933" y2="1.535" gradientUnits="objectBoundingBox">
      <stop offset="0" stop-color="#59d8f9"/>
      <stop offset="1" stop-color="#7248ff"/>
    </linearGradient>
  </defs>
  <g id="Logo" transform="translate(0.594 0.635)">
    <path id="Text" d="M7.639,31.2A14.055,14.055,0,0,1,2,25.5,17.794,17.794,0,0,1-.027,16.84,17.8,17.8,0,0,1,2,8.176a14.047,14.047,0,0,1,5.643-5.7,16.9,16.9,0,0,1,8.293-2,15.771,15.771,0,0,1,10,3.135,14.787,14.787,0,0,1,5.272,8.835H20.835A4.993,4.993,0,0,0,15.762,8.8a5.113,5.113,0,0,0-4.275,2.08,9.626,9.626,0,0,0-1.6,5.957,9.625,9.625,0,0,0,1.6,5.956,5.114,5.114,0,0,0,4.275,2.081,4.994,4.994,0,0,0,5.073-3.649H31.208a14.929,14.929,0,0,1-5.3,8.779A15.608,15.608,0,0,1,15.933,33.2,16.9,16.9,0,0,1,7.639,31.2Zm215.88-.1a12.653,12.653,0,0,1-5.13-3.905,10.271,10.271,0,0,1-2.109-5.558h9.633a3.7,3.7,0,0,0,1.539,2.679,5.445,5.445,0,0,0,3.363,1.026,4.8,4.8,0,0,0,2.821-.713,2.179,2.179,0,0,0,1-1.852,2.137,2.137,0,0,0-1.425-2.023,28.764,28.764,0,0,0-4.617-1.453,43.235,43.235,0,0,1-5.7-1.682,9.848,9.848,0,0,1-3.933-2.793,7.613,7.613,0,0,1-1.652-5.159,8.758,8.758,0,0,1,1.51-4.987,10.178,10.178,0,0,1,4.446-3.563,17.029,17.029,0,0,1,6.982-1.31q5.986,0,9.434,2.964a11.532,11.532,0,0,1,3.962,7.866h-9.006a3.882,3.882,0,0,0-1.454-2.622,5.04,5.04,0,0,0-3.22-.969,4.458,4.458,0,0,0-2.623.655,2.1,2.1,0,0,0-.912,1.8,2.19,2.19,0,0,0,1.454,2.052,23.224,23.224,0,0,0,4.531,1.368,49.745,49.745,0,0,1,5.757,1.8,9.933,9.933,0,0,1,3.9,2.85,8.062,8.062,0,0,1,1.739,5.272,8.369,8.369,0,0,1-1.568,4.988,10.366,10.366,0,0,1-4.5,3.449,17.225,17.225,0,0,1-6.812,1.254A18.29,18.29,0,0,1,223.52,31.108Zm-35.768-.571a14.6,14.6,0,0,1-5.871-5.7,17.034,17.034,0,0,1-2.138-8.664,16.892,16.892,0,0,1,2.166-8.635,14.7,14.7,0,0,1,5.927-5.729,18.839,18.839,0,0,1,16.872,0,14.7,14.7,0,0,1,5.928,5.729,16.9,16.9,0,0,1,2.165,8.635,16.716,16.716,0,0,1-2.194,8.635,14.828,14.828,0,0,1-5.985,5.729,17.891,17.891,0,0,1-8.465,2A17.557,17.557,0,0,1,187.752,30.537Zm3.791-20.264a8.367,8.367,0,0,0-1.881,5.9,8.47,8.47,0,0,0,1.852,5.872A6,6,0,0,0,196.16,24.1a6.348,6.348,0,0,0,4.759-2.052,8.152,8.152,0,0,0,1.967-5.872,8.306,8.306,0,0,0-1.909-5.871,6.478,6.478,0,0,0-9.434-.029Zm-96.5,20.834a12.653,12.653,0,0,1-5.13-3.905,10.265,10.265,0,0,1-2.11-5.558h9.634a3.7,3.7,0,0,0,1.539,2.679,5.444,5.444,0,0,0,3.362,1.026,4.8,4.8,0,0,0,2.821-.713,2.18,2.18,0,0,0,1-1.852,2.137,2.137,0,0,0-1.426-2.023,28.7,28.7,0,0,0-4.617-1.453,43.259,43.259,0,0,1-5.7-1.682,9.842,9.842,0,0,1-3.933-2.793,7.613,7.613,0,0,1-1.653-5.159,8.759,8.759,0,0,1,1.511-4.987,10.173,10.173,0,0,1,4.446-3.563,17.023,17.023,0,0,1,6.982-1.31q5.985,0,9.434,2.964a11.535,11.535,0,0,1,3.961,7.866h-9.005A3.885,3.885,0,0,0,104.7,8.023a5.042,5.042,0,0,0-3.221-.969,4.457,4.457,0,0,0-2.622.655,2.1,2.1,0,0,0-.912,1.8A2.19,2.19,0,0,0,99.4,11.556a23.2,23.2,0,0,0,4.531,1.368,49.722,49.722,0,0,1,5.756,1.8,9.936,9.936,0,0,1,3.905,2.85,8.067,8.067,0,0,1,1.738,5.272,8.368,8.368,0,0,1-1.567,4.988,10.364,10.364,0,0,1-4.5,3.449,17.217,17.217,0,0,1-6.811,1.254A18.286,18.286,0,0,1,95.042,31.108Zm70.11.968V14.805a6.572,6.572,0,0,0-1.625-4.759,6.8,6.8,0,0,0-8.95,0,6.572,6.572,0,0,0-1.624,4.759V32.076h-9.689V14.805a6.572,6.572,0,0,0-1.625-4.759,6.8,6.8,0,0,0-8.95,0,6.572,6.572,0,0,0-1.624,4.759V32.076h-9.747V.27h9.747V4.261A10.431,10.431,0,0,1,134.941,1.1a12.18,12.18,0,0,1,5.415-1.169,13.172,13.172,0,0,1,6.413,1.539,11.032,11.032,0,0,1,4.417,4.389,12.815,12.815,0,0,1,4.5-4.275A12.173,12.173,0,0,1,161.9-.072a12.577,12.577,0,0,1,9.433,3.591q3.506,3.591,3.505,9.976V32.076Z" transform="translate(-0.067 8.714)" fill="#151821" stroke="rgba(0,0,0,0)" stroke-width="1"/>
    <path id="Shape" d="M30.709,34.929a16.976,16.976,0,0,1-5.78-1.652,14.346,14.346,0,0,1-3.021-1.939c.03-.03,1.306-.536,2.837-1.123a178.379,178.379,0,0,0,22.5-10.586,24.524,24.524,0,0,1,2.3-1.219,5.883,5.883,0,0,1-.073,1.107A17.386,17.386,0,0,1,35.237,34.746a21.024,21.024,0,0,1-4.528.184ZM2.886,34.158C.923,33.838-.178,32.7.024,31.207c.206-1.53,2.112-3.515,4-5.286A99.049,99.049,0,0,1,13.612,19.4a3.833,3.833,0,0,1,.911,1.311c-.023.017-.769.541-1.658,1.164C7.5,25.635,2.772,29.685,1.807,31.348l-.226.39.266.27c.425.432,1.048.557,2.77.555A21.071,21.071,0,0,0,9.468,32c15.5-3.115,42.568-16.417,51.266-25.192,1.6-1.619,2.443-2.94,2.281-3.6-.109-.44-.6-.57-2.117-.561a28.363,28.363,0,0,0-5.553.718c-1.8.368-5.465,1.3-7.435,1.9a5.331,5.331,0,0,1-1.355.308A3.749,3.749,0,0,1,46.2,4.122c.177-.167,6.692-2.134,9.039-2.73A16.492,16.492,0,0,1,59.982.687c2.229-.008,3.39.324,4.128,1.178a2.33,2.33,0,0,1,.361,2.458c-1.841,6.013-22.934,18.683-43.3,26.012A97.95,97.95,0,0,1,10.385,33.5a26.142,26.142,0,0,1-7.5.657Zm15.385-6.611A17.733,17.733,0,0,1,15.49,21a13.807,13.807,0,0,1-.246-3.508,13.835,13.835,0,0,1,.238-3.469,17.94,17.94,0,0,1,5.5-9.64A16.993,16.993,0,0,1,41.768,2.832a17.668,17.668,0,0,1,7.22,10.1,9.776,9.776,0,0,1,.236,1.005c-2.361,1.558-10.28,5.782-14.754,7.87-4.988,2.328-10.32,4.536-14.353,5.942l-1.373.479Z" transform="matrix(0.946, -0.326, 0.326, 0.946, 24.675, 21.048)" stroke="rgba(0,0,0,0)" stroke-miterlimit="10" stroke-width="1" fill="url(#linear-gradient)"/>
  </g>
</svg>
