<svg xmlns="http://www.w3.org/2000/svg" xmlns:xlink="http://www.w3.org/1999/xlink" width="362.42" height="82.346" viewBox="0 0 362.42 82.346">
  <defs>
    <linearGradient id="linear-gradient" x1="0.308" y1="-0.168" x2="0.933" y2="1.535" gradientUnits="objectBoundingBox">
      <stop offset="0" stop-color="#59d8f9"/>
      <stop offset="1" stop-color="#7248ff"/>
    </linearGradient>
  </defs>
  <g id="logo-white" transform="translate(0.656 0.634)">
    <path id="Text" d="M331.48,45.473a18.648,18.648,0,0,1-7.56-5.755,15.13,15.13,0,0,1-3.109-8.19h14.2a5.453,5.453,0,0,0,2.268,3.948,8.022,8.022,0,0,0,4.955,1.512,7.072,7.072,0,0,0,4.158-1.05,3.215,3.215,0,0,0,1.471-2.73,3.149,3.149,0,0,0-2.1-2.982,42.339,42.339,0,0,0-6.8-2.142,63.793,63.793,0,0,1-8.4-2.479,14.509,14.509,0,0,1-5.8-4.116,11.214,11.214,0,0,1-2.436-7.6,12.906,12.906,0,0,1,2.227-7.349A14.979,14.979,0,0,1,331.1,1.289a25.087,25.087,0,0,1,10.29-1.931q8.82,0,13.9,4.368a17,17,0,0,1,5.837,11.592H347.86a5.722,5.722,0,0,0-2.142-3.864,7.43,7.43,0,0,0-4.747-1.428,6.564,6.564,0,0,0-3.864.966,3.084,3.084,0,0,0-1.344,2.646,3.228,3.228,0,0,0,2.142,3.024,34.23,34.23,0,0,0,6.678,2.016,73.207,73.207,0,0,1,8.483,2.646,14.64,14.64,0,0,1,5.755,4.2,11.885,11.885,0,0,1,2.561,7.77,12.334,12.334,0,0,1-2.309,7.35,15.28,15.28,0,0,1-6.637,5.082A25.375,25.375,0,0,1,342.4,47.573,26.946,26.946,0,0,1,331.48,45.473Zm-52.71-.841a21.52,21.52,0,0,1-8.652-8.4,25.092,25.092,0,0,1-3.15-12.768,24.9,24.9,0,0,1,3.191-12.726A21.665,21.665,0,0,1,278.9,2.3a27.761,27.761,0,0,1,24.864,0,21.663,21.663,0,0,1,8.735,8.442,24.9,24.9,0,0,1,3.192,12.726,24.648,24.648,0,0,1-3.234,12.726,21.868,21.868,0,0,1-8.82,8.442,26.366,26.366,0,0,1-12.474,2.94A25.87,25.87,0,0,1,278.77,44.633Zm5.586-29.862q-2.773,2.982-2.772,8.694,0,5.628,2.73,8.653a8.836,8.836,0,0,0,6.846,3.024,9.357,9.357,0,0,0,7.014-3.024q2.9-3.024,2.9-8.653t-2.814-8.652a9.546,9.546,0,0,0-13.9-.042Zm-142.213,30.7a18.66,18.66,0,0,1-7.56-5.755,15.136,15.136,0,0,1-3.108-8.19h14.2a5.459,5.459,0,0,0,2.268,3.948,8.026,8.026,0,0,0,4.956,1.512,7.072,7.072,0,0,0,4.158-1.05,3.214,3.214,0,0,0,1.47-2.73,3.15,3.15,0,0,0-2.1-2.982,42.4,42.4,0,0,0-6.8-2.142,63.75,63.75,0,0,1-8.4-2.479,14.509,14.509,0,0,1-5.8-4.116,11.214,11.214,0,0,1-2.436-7.6,12.905,12.905,0,0,1,2.226-7.349,14.989,14.989,0,0,1,6.552-5.251A25.094,25.094,0,0,1,152.056-.643q8.82,0,13.9,4.368A17,17,0,0,1,171.8,15.317H158.523a5.718,5.718,0,0,0-2.142-3.864,7.428,7.428,0,0,0-4.746-1.428,6.563,6.563,0,0,0-3.864.966,3.085,3.085,0,0,0-1.345,2.646,3.23,3.23,0,0,0,2.142,3.024,34.251,34.251,0,0,0,6.678,2.016,73.227,73.227,0,0,1,8.484,2.646,14.631,14.631,0,0,1,5.754,4.2,11.88,11.88,0,0,1,2.562,7.77,12.335,12.335,0,0,1-2.31,7.35,15.277,15.277,0,0,1-6.636,5.082,25.378,25.378,0,0,1-10.038,1.848A26.95,26.95,0,0,1,142.143,45.473ZM11.126,44.657a20.47,20.47,0,0,1-8.217-8.3A25.921,25.921,0,0,1-.037,23.741,25.918,25.918,0,0,1,2.909,11.126a20.466,20.466,0,0,1,8.217-8.3A24.605,24.605,0,0,1,23.2-.079q8.714,0,14.567,4.565A21.535,21.535,0,0,1,45.446,17.35H30.341q-1.909-5.312-7.387-5.312a7.446,7.446,0,0,0-6.225,3.029Q14.4,18.1,14.4,23.741t2.324,8.674a7.446,7.446,0,0,0,6.225,3.029q5.478,0,7.387-5.313H45.446a21.74,21.74,0,0,1-7.718,12.783A22.729,22.729,0,0,1,23.2,47.562,24.606,24.606,0,0,1,11.126,44.657ZM245.463,46.9V21.449q0-4.536-2.394-7.014a10.013,10.013,0,0,0-13.188,0q-2.394,2.479-2.394,7.014V46.9h-14.28V21.449q0-4.536-2.394-7.014a10.013,10.013,0,0,0-13.188,0q-2.394,2.479-2.394,7.014V46.9H180.868V.029h14.364V5.909a15.366,15.366,0,0,1,5.712-4.662,17.949,17.949,0,0,1,7.979-1.723,19.411,19.411,0,0,1,9.45,2.268,16.266,16.266,0,0,1,6.511,6.468,18.876,18.876,0,0,1,6.636-6.3,17.933,17.933,0,0,1,9.156-2.436q8.736,0,13.9,5.292t5.166,14.7V46.9Z" transform="translate(-0.119 12.34)" fill="#fcfbff" stroke="rgba(0,0,0,0)" stroke-width="1"/>
    <path id="Shape" d="M45.974,52.293a25.415,25.415,0,0,1-8.653-2.474c-1.643-.805-4.673-2.75-4.522-2.9.045-.045,1.956-.8,4.247-1.681A267.051,267.051,0,0,0,70.728,29.386a36.714,36.714,0,0,1,3.443-1.824,8.808,8.808,0,0,1-.109,1.657,26.029,26.029,0,0,1-21.308,22.8,31.475,31.475,0,0,1-6.779.275ZM4.321,51.138C1.382,50.658-.267,48.959.035,46.72c.309-2.291,3.161-5.262,5.988-7.914,2.325-2.18,13.657-9.494,14.355-9.759a5.738,5.738,0,0,1,1.364,1.962c-.034.026-1.151.811-2.483,1.743C11.229,38.378,4.15,44.441,2.7,46.931l-.338.583.4.4c.636.647,1.569.834,4.147.831a31.546,31.546,0,0,0,7.264-.843c23.2-4.663,63.729-24.579,76.75-37.715,2.4-2.423,3.657-4.4,3.415-5.384-.163-.659-.9-.854-3.17-.839a42.463,42.463,0,0,0-8.313,1.075c-2.7.55-8.182,1.949-11.131,2.839a7.981,7.981,0,0,1-2.028.461,5.613,5.613,0,0,1-.535-2.173c.265-.249,10.018-3.195,13.533-4.086a24.691,24.691,0,0,1,7.1-1.056c3.336-.012,5.076.485,6.18,1.763a3.488,3.488,0,0,1,.54,3.68c-2.756,9-34.334,27.971-64.829,38.943a146.642,146.642,0,0,1-16.142,4.74c-4.344.913-9.1,1.33-11.226.983Zm23.033-9.9a26.549,26.549,0,0,1-4.163-9.8,20.67,20.67,0,0,1-.368-5.251A20.713,20.713,0,0,1,23.18,21,26.858,26.858,0,0,1,31.41,6.566,25.44,25.44,0,0,1,62.532,4.24,26.451,26.451,0,0,1,73.341,19.358a14.637,14.637,0,0,1,.353,1.5C70.16,23.194,58.3,29.519,51.606,32.645c-7.468,3.486-15.451,6.79-21.488,8.9l-2.055.717Z" transform="matrix(0.946, -0.326, 0.326, 0.946, 36.991, 31.512)" stroke="rgba(0,0,0,0)" stroke-miterlimit="10" stroke-width="1" fill="url(#linear-gradient)"/>
  </g>
</svg>
